<svg xmlns="http://www.w3.org/2000/svg" width="12993" height="5906"><path fill="#BE1522" d="m4167 1071 3.145 1.394c50.028 22.313 97.193 51.208 139.855 85.606l2.852 2.297c5.499 4.469 10.915 9.03 16.315 13.62a616 616 0 0 0 10.27 8.52c4.864 3.958 9.622 8.028 14.371 12.121a491 491 0 0 0 10.692 8.942c4.846 3.934 9.581 7.984 14.309 12.059a491 491 0 0 0 10.691 8.941c4.228 3.432 8.375 6.946 12.5 10.5a680 680 0 0 0 15.223 12.723c3.685 3.021 7.313 6.107 10.944 9.194a619 619 0 0 0 10.27 8.52c4.864 3.958 9.622 8.028 14.371 12.121a491 491 0 0 0 10.692 8.942c4.846 3.934 9.581 7.984 14.309 12.059a491 491 0 0 0 10.691 8.941c4.228 3.432 8.375 6.946 12.5 10.5a688 688 0 0 0 15.23 12.73c5.878 4.817 11.646 9.765 17.436 14.686 5.555 4.72 11.115 9.425 16.771 14.022 4.863 3.956 9.62 8.026 14.37 12.118 4.413 3.796 8.896 7.497 13.416 11.167 3.685 3.021 7.313 6.107 10.944 9.194a619 619 0 0 0 10.27 8.52c4.864 3.958 9.622 8.028 14.371 12.121a491 491 0 0 0 10.692 8.942c4.846 3.934 9.581 7.984 14.309 12.059a491 491 0 0 0 10.691 8.941c4.228 3.432 8.375 6.946 12.5 10.5a688 688 0 0 0 15.23 12.73c5.878 4.817 11.646 9.765 17.436 14.686 5.555 4.72 11.115 9.425 16.771 14.022 4.863 3.956 9.62 8.026 14.37 12.118 4.413 3.796 8.896 7.497 13.416 11.167 3.685 3.021 7.313 6.107 10.944 9.194a619 619 0 0 0 10.27 8.52c4.864 3.958 9.622 8.028 14.371 12.121a491 491 0 0 0 10.692 8.942c4.846 3.934 9.581 7.984 14.309 12.059a491 491 0 0 0 10.691 8.941c4.228 3.432 8.375 6.946 12.5 10.5a688 688 0 0 0 15.23 12.73c5.878 4.817 11.646 9.765 17.436 14.686 5.555 4.72 11.115 9.425 16.771 14.022 4.863 3.956 9.62 8.026 14.37 12.118 4.413 3.796 8.896 7.497 13.416 11.167 3.685 3.021 7.313 6.107 10.944 9.194a619 619 0 0 0 10.27 8.52c4.864 3.958 9.622 8.028 14.371 12.121a491 491 0 0 0 10.692 8.942c4.846 3.934 9.581 7.984 14.309 12.059a491 491 0 0 0 10.691 8.941c4.228 3.432 8.375 6.946 12.5 10.5a688 688 0 0 0 15.23 12.73c5.878 4.817 11.646 9.765 17.436 14.686 5.555 4.72 11.115 9.425 16.771 14.022 4.863 3.956 9.62 8.026 14.37 12.118 4.416 3.798 8.903 7.5 13.423 11.174 5.878 4.817 11.646 9.765 17.436 14.686 5.577 4.738 11.16 9.462 16.834 14.084 6.804 5.542 13.48 11.233 20.166 16.916 5.555 4.72 11.115 9.425 16.771 14.022 4.863 3.956 9.62 8.026 14.37 12.118 4.416 3.798 8.903 7.5 13.423 11.174 5.878 4.817 11.646 9.765 17.436 14.686 5.555 4.72 11.115 9.425 16.771 14.022 4.863 3.956 9.62 8.026 14.37 12.118 4.416 3.798 8.903 7.5 13.423 11.174 5.878 4.817 11.646 9.765 17.436 14.686 5.577 4.738 11.16 9.462 16.834 14.084 6.804 5.542 13.48 11.233 20.166 16.916 5.555 4.72 11.115 9.425 16.771 14.022 4.863 3.956 9.62 8.026 14.37 12.118 4.416 3.798 8.903 7.5 13.423 11.174 5.878 4.817 11.646 9.765 17.436 14.686 5.555 4.72 11.115 9.425 16.771 14.022 4.863 3.956 9.62 8.026 14.37 12.118 4.416 3.798 8.903 7.5 13.423 11.174 5.878 4.817 11.646 9.765 17.436 14.686 5.577 4.738 11.16 9.462 16.834 14.084 6.804 5.542 13.48 11.233 20.166 16.916 5.555 4.72 11.115 9.425 16.771 14.021 4.863 3.957 9.62 8.027 14.37 12.12 4.416 3.797 8.903 7.5 13.423 11.173 5.878 4.817 11.646 9.765 17.436 14.686 5.555 4.72 11.115 9.425 16.771 14.021 4.863 3.957 9.62 8.027 14.37 12.12 4.416 3.797 8.903 7.5 13.423 11.173 5.878 4.817 11.646 9.765 17.436 14.686 5.577 4.738 11.16 9.462 16.834 14.084 6.804 5.542 13.48 11.233 20.166 16.916 5.555 4.72 11.115 9.425 16.771 14.021 4.863 3.957 9.62 8.027 14.37 12.12 4.416 3.797 8.903 7.5 13.423 11.173 5.878 4.817 11.646 9.765 17.436 14.686 5.555 4.72 11.115 9.425 16.771 14.021 4.863 3.957 9.62 8.027 14.37 12.12 4.41 3.792 8.89 7.492 13.408 11.158 3.685 3.024 7.315 6.111 10.932 9.217 4.515 3.853 9.15 7.41 13.853 11.068V1025h748l.05 313.395.002 11.88a5136210 5136210 0 0 1 .033 282.001l.017 198.386v2.362l.008 97.492q.008 112.719.027 225.437v2.395l.027 150.11v2.365q.014 73.339.018 146.678v2.29l.008 146.265a529568 529568 0 0 0 .022 138.9 413765 413765 0 0 1 .014 164.033v3.895q0 30.463.014 60.928.013 29.994.004 59.988-.007 17.559.008 35.118.01 11.7-.001 23.397-.007 6.607.003 13.216c.032 17.438-.219 34.815-1.16 52.23l-.121 2.268c-2.794 51.135-12.441 102.67-34.973 148.971l-1.261 2.601c-8.573 17.479-18.908 33.721-31.739 48.399l-2.059 2.39c-10.638 12.103-21.95 23.072-34.941 32.61l-3.031 2.258c-73.85 53.103-173.96 57.534-278.933 43.637-57.21-9.507-111.825-27.787-164.036-52.895l-3.06-1.463c-14.518-6.98-28.472-14.709-42.298-22.97a372 372 0 0 0-6.872-3.973c-26.9-15.256-52.386-33.638-76.77-52.594l-1.895-1.465a586 586 0 0 1-22.023-17.918 479 479 0 0 0-8.582-7.117c-4.605-3.748-9.14-7.57-13.664-11.414a661 661 0 0 0-10.336-8.586c-6.804-5.542-13.48-11.233-20.166-16.916-6.458-5.487-12.949-10.922-19.521-16.271-3.694-3.037-7.336-6.133-10.98-9.23a618 618 0 0 0-10.27-8.52c-4.863-3.957-9.62-8.027-14.37-12.12-4.413-3.795-8.896-7.496-13.416-11.166a685 685 0 0 1-9.277-7.777 737 737 0 0 0-12-10c-6.804-5.542-13.48-11.233-20.166-16.916-6.458-5.487-12.949-10.922-19.521-16.271-3.694-3.037-7.336-6.133-10.98-9.23a618 618 0 0 0-10.27-8.52c-4.863-3.957-9.62-8.027-14.37-12.12-4.413-3.795-8.896-7.496-13.416-11.166a685 685 0 0 1-9.277-7.777 737 737 0 0 0-12-10c-6.804-5.542-13.48-11.233-20.166-16.916-6.458-5.487-12.949-10.922-19.521-16.271-3.694-3.037-7.336-6.133-10.98-9.23a618 618 0 0 0-10.27-8.52c-4.863-3.957-9.62-8.027-14.37-12.12-4.413-3.795-8.896-7.496-13.416-11.166-3.685-3.021-7.313-6.107-10.944-9.194a619 619 0 0 0-10.27-8.52c-4.863-3.957-9.62-8.027-14.37-12.12-4.413-3.795-8.896-7.496-13.416-11.166a685 685 0 0 1-9.277-7.777 737 737 0 0 0-12-10c-6.804-5.542-13.48-11.233-20.166-16.916-6.458-5.487-12.949-10.922-19.521-16.271-3.694-3.037-7.336-6.133-10.98-9.23a618 618 0 0 0-10.27-8.52c-4.863-3.957-9.62-8.027-14.37-12.12-4.413-3.795-8.896-7.496-13.416-11.166a685 685 0 0 1-9.277-7.777 737 737 0 0 0-12-10c-6.804-5.542-13.48-11.233-20.166-16.916-6.458-5.487-12.949-10.922-19.521-16.271-3.694-3.037-7.336-6.133-10.98-9.23a618 618 0 0 0-10.27-8.52c-4.863-3.957-9.62-8.027-14.37-12.12-4.413-3.795-8.896-7.496-13.416-11.166a685 685 0 0 1-9.277-7.777 737 737 0 0 0-12-10c-6.804-5.542-13.48-11.233-20.166-16.916-6.458-5.487-12.949-10.922-19.521-16.271-3.694-3.037-7.336-6.133-10.98-9.23a618 618 0 0 0-10.27-8.52c-4.863-3.957-9.62-8.027-14.37-12.12-4.413-3.795-8.896-7.496-13.416-11.166-3.685-3.021-7.313-6.107-10.944-9.194a619 619 0 0 0-10.27-8.52c-4.863-3.957-9.62-8.027-14.37-12.12-4.413-3.795-8.896-7.496-13.416-11.166a685 685 0 0 1-9.277-7.777 737 737 0 0 0-12-10c-6.804-5.542-13.48-11.233-20.166-16.916-6.458-5.487-12.949-10.922-19.521-16.271-3.694-3.037-7.336-6.133-10.98-9.23a618 618 0 0 0-10.27-8.52c-4.863-3.957-9.62-8.027-14.37-12.12-4.413-3.795-8.896-7.496-13.416-11.166a685 685 0 0 1-9.277-7.777 737 737 0 0 0-12-10c-6.804-5.542-13.48-11.233-20.166-16.916-6.458-5.487-12.949-10.922-19.521-16.271-3.694-3.037-7.336-6.133-10.98-9.23a618 618 0 0 0-10.27-8.52c-4.863-3.957-9.62-8.027-14.37-12.12-4.413-3.795-8.896-7.496-13.416-11.166-3.685-3.021-7.313-6.107-10.944-9.194a619 619 0 0 0-10.27-8.52c-4.863-3.957-9.62-8.027-14.37-12.12-4.413-3.795-8.896-7.496-13.416-11.166a685 685 0 0 1-9.277-7.777 737 737 0 0 0-12-10c-6.804-5.542-13.48-11.233-20.166-16.916-6.458-5.487-12.949-10.922-19.521-16.271-3.694-3.037-7.336-6.133-10.98-9.23a618 618 0 0 0-10.27-8.52c-4.863-3.957-9.62-8.027-14.37-12.12-4.413-3.795-8.896-7.496-13.416-11.166a685 685 0 0 1-9.277-7.777 737 737 0 0 0-12-10c-6.804-5.542-13.48-11.233-20.166-16.916-6.458-5.487-12.949-10.922-19.521-16.271-3.694-3.037-7.336-6.133-10.98-9.23a618 618 0 0 0-10.27-8.52c-4.863-3.957-9.62-8.027-14.37-12.12-4.413-3.795-8.896-7.496-13.416-11.166a685 685 0 0 1-9.277-7.777 737 737 0 0 0-12-10c-6.804-5.542-13.48-11.233-20.166-16.916-6.458-5.487-12.949-10.922-19.521-16.271-3.694-3.037-7.336-6.133-10.98-9.23a618 618 0 0 0-10.27-8.52c-4.863-3.957-9.62-8.027-14.37-12.12-4.413-3.795-8.896-7.496-13.416-11.166a686 686 0 0 1-9.277-7.777c-9.033-7.67-18.246-15.097-27.5-22.5l-1 1318h-748c-.06-246.824-.06-246.824-.075-315.083l-.003-11.943a3461652 3461652 0 0 1-.05-283.472l-.025-199.394v-2.374l-.012-97.986c-.01-75.538-.021-151.077-.041-226.615v-2.408l-.04-150.929-.001-2.377a997399 997399 0 0 1-.027-149.746 2066692 2066692 0 0 1-.01-146.988q-.003-51.024-.02-102.05l-.001-2.22-.013-35.377a278943 278943 0 0 1-.021-168.78q0-30.638-.021-61.274a54907 54907 0 0 1-.005-60.287q.009-17.66-.014-35.32-.013-11.75.003-23.5c.006-4.432.007-8.863-.006-13.295-.207-78.223 19.697-153.884 72.382-213.582l2.086-2.422c10.596-12.098 22.05-23.889 34.914-33.578l1.66-1.27c81.103-61.889 188.042-71.28 437.34-17.73M6703 1903h2496c-3.568 5.353-7 10.462-11 15.438q-1.437 1.807-2.871 3.617l-1.527 1.92c-2.91 3.679-5.787 7.384-8.665 11.088l-1.814 2.333a3526 3526 0 0 0-12.498 16.198c-3.796 4.935-7.628 9.841-11.453 14.754A2491 2491 0 0 0 9139 1981.5c-4.583 5.97-9.204 11.91-13.828 17.848A2491 2491 0 0 0 9115 2012.5c-4.583 5.97-9.204 11.91-13.828 17.848A2491 2491 0 0 0 9091 2043.5c-4.583 5.97-9.204 11.91-13.828 17.848A2491 2491 0 0 0 9067 2074.5c-4.583 5.97-9.204 11.91-13.828 17.848A2491 2491 0 0 0 9043 2105.5a2844 2844 0 0 1-12 15.5 3917 3917 0 0 0-17 22 4302 4302 0 0 1-18.827 24.346A2488 2488 0 0 0 8985 2180.5c-4.583 5.97-9.204 11.91-13.828 17.848A2491 2491 0 0 0 8961 2211.5c-4.583 5.97-9.204 11.91-13.828 17.848A2491 2491 0 0 0 8937 2242.5c-4.583 5.97-9.204 11.91-13.828 17.848A2491 2491 0 0 0 8913 2273.5c-4.583 5.97-9.204 11.91-13.828 17.848A2491 2491 0 0 0 8889 2304.5c-4.583 5.97-9.204 11.91-13.828 17.848A2491 2491 0 0 0 8865 2335.5c-4.583 5.97-9.204 11.91-13.828 17.848A2491 2491 0 0 0 8841 2366.5c-4.583 5.97-9.204 11.91-13.828 17.848A2491 2491 0 0 0 8817 2397.5c-4.583 5.97-9.204 11.91-13.828 17.848A2491 2491 0 0 0 8793 2428.5c-4.583 5.97-9.204 11.91-13.828 17.848A2491 2491 0 0 0 8769 2459.5c-4.583 5.97-9.204 11.91-13.828 17.848A2491 2491 0 0 0 8745 2490.5c-13.248 17.255-13.248 17.255-17.257 22.162-1.792 2.25-1.792 2.25-2.88 4.694-1.648 3.011-3.049 4.638-5.863 6.644-6.619 1.81-13.856 1.19-20.649 1.107q-3.252.01-6.506.032c-5.99.028-11.979-.001-17.969-.039-5.834-.027-11.669-.012-17.503.001a6661 6661 0 0 1-36.242-.028q-18.367-.061-36.733-.055h-2.343l-11.824.006c-28.538.012-57.076-.018-85.614-.072q-42.397-.082-84.796-.098l-2.659-.001-24.045-.008q-29.888-.009-59.775-.025l-2.75-.001c-44.146-.024-88.294-.08-132.44-.14l-45.966-.061-2.88-.004a197484 197484 0 0 0-141.103-.123l-57.001-.035a1065263 1065263 0 0 1-118.821-.077 418164 418164 0 0 1-173.098-.155c-62.095-.068-124.189-.148-186.283-.224v286h1864l-6 8-2.824 3.79a1030 1030 0 0 1-17.54 22.862c-2.92 3.698-5.79 7.434-8.656 11.173-3.639 4.742-7.308 9.46-10.98 14.175a2838 2838 0 0 0-12 15.5c-4.583 5.97-9.204 11.91-13.828 17.848A2491 2491 0 0 0 9234 2916.5c-4.583 5.97-9.204 11.91-13.828 17.848A2491 2491 0 0 0 9210 2947.5c-4.583 5.97-9.204 11.91-13.828 17.848A2491 2491 0 0 0 9186 2978.5c-4.583 5.97-9.204 11.91-13.828 17.848A2491 2491 0 0 0 9162 3009.5c-4.583 5.97-9.204 11.91-13.828 17.848A2491 2491 0 0 0 9138 3040.5c-4.583 5.97-9.204 11.91-13.828 17.848A2491 2491 0 0 0 9114 3071.5c-4.583 5.97-9.204 11.91-13.828 17.848A2491 2491 0 0 0 9090 3102.5c-4.583 5.97-9.204 11.91-13.828 17.848A2491 2491 0 0 0 9066 3133.5c-4.583 5.97-9.204 11.91-13.828 17.848A2491 2491 0 0 0 9042 3164.5c-4.583 5.97-9.204 11.91-13.828 17.848A2491 2491 0 0 0 9018 3195.5c-4.583 5.97-9.204 11.91-13.828 17.848A2491 2491 0 0 0 8994 3226.5c-4.583 5.97-9.204 11.91-13.828 17.848A2491 2491 0 0 0 8970 3257.5c-4.583 5.97-9.204 11.91-13.828 17.848A2491 2491 0 0 0 8946 3288.5c-4.583 5.97-9.204 11.91-13.828 17.848A2491 2491 0 0 0 8922 3319.5c-4.583 5.97-9.204 11.91-13.828 17.848A2491 2491 0 0 0 8898 3350.5c-4.583 5.97-9.204 11.91-13.828 17.848A2491 2491 0 0 0 8874 3381.5a2850 2850 0 0 1-12 15.5 4057 4057 0 0 0-12.312 15.875 286 286 0 0 1-3.3 4.223c-1.52 2.016-1.52 2.016-3.088 4.805-5.323 8.406-5.323 8.406-10.492 10.213-3.893.418-7.697.462-11.603.374q-2.26.015-4.523.047c-4.153.04-8.302.007-12.455-.039-4.53-.037-9.06-.004-13.59.02-7.974.033-15.947.021-23.92-.02-11.937-.06-23.873-.052-35.81-.03-20.34.036-40.68.014-61.022-.038q-30.928-.08-61.857-.073l-3.943.001-17.9.006q-21.41.008-42.817.006h-2.075c-33.756-.003-67.512-.05-101.267-.101q-17.827-.027-35.653-.052l-2.239-.003a90828 90828 0 0 0-109.37-.077l-40.481-.01a522907 522907 0 0 1-102.953-.034q-74.198-.033-148.395-.107l-2.393-.003q-36.063-.037-72.124-.075l-79.814-.084-2.424-.003a423194 423194 0 0 0-240.1-.167q-76.042-.037-152.085-.072l-2.203-.001-10.091-.005c-245.567-.112-491.134-.354-736.701-.576zM9771.031 1024.5l3.82.001 2.139-.016c2.39-.013 4.779.003 7.169.018q2.596-.005 5.192-.015c4.8-.014 9.6-.003 14.4.013 5.225.012 10.45 0 15.675-.007q13.81-.015 27.621.006c13.784.02 27.567.018 41.35.01 23.487-.011 46.973-.004 70.459.013q35.722.028 71.444.025h2.273l20.625-.002 51.727-.003h2.395c38.983.001 77.966.017 116.95.034l43.77.018a363488 363488 0 0 0 126.285.026l46.732.003 116.183.011h2.671q85.676.012 171.35.036l2.764.001 175.47.053 2.8.001a1706132 1706132 0 0 0 274.35.055l102.575.015h2.756l8.258.001 230.98.034c85.233.014 170.466.03 472.83.106h2.236q111.86.03 223.72.063c-.701 3.089-1.464 4.898-3.52 7.328l-1.58 1.899-1.712 2.023c-4.569 5.501-8.999 11.063-13.25 16.813-4.403 5.938-8.936 11.747-13.577 17.501a604 604 0 0 0-9.423 11.999q-5.048 6.6-10.188 13.125c-6.018 7.64-11.985 15.318-17.952 22.998q-5.268 6.78-10.54 13.554-4.434 5.7-8.863 11.4a4446 4446 0 0 1-17.219 22.042c-5.489 6.978-10.93 13.992-16.378 21.004q-5.268 6.78-10.54 13.554-4.434 5.7-8.863 11.4a4446 4446 0 0 1-17.219 22.042c-6.093 7.746-12.13 15.535-18.176 23.318-6.921 8.91-13.845 17.817-20.824 26.682-5.489 6.978-10.93 13.992-16.378 21.004q-5.268 6.78-10.54 13.554-4.434 5.7-8.863 11.4a4446 4446 0 0 1-17.219 22.042c-5.489 6.978-10.93 13.992-16.378 21.004q-5.268 6.78-10.54 13.554-4.434 5.7-8.863 11.4a4446 4446 0 0 1-17.219 22.042c-5.489 6.978-10.93 13.992-16.378 21.004q-5.268 6.78-10.54 13.554-4.434 5.7-8.863 11.4a4446 4446 0 0 1-17.219 22.042c-5.489 6.978-10.93 13.992-16.378 21.004q-5.268 6.78-10.54 13.554-4.434 5.7-8.863 11.4a4446 4446 0 0 1-17.219 22.042c-6.093 7.746-12.13 15.535-18.176 23.318-6.921 8.91-13.845 17.817-20.824 26.682a3843 3843 0 0 0-14.133 18.115q-9.02 11.604-18.043 23.203h-721v1784h-748V1647h-990c1.831-4.578 3.224-6.707 6.375-10.312 4.05-4.72 7.859-9.568 11.563-14.563 4.62-6.22 9.34-12.346 14.144-18.426 9.076-11.485 18.007-23.085 26.918-34.699a4302 4302 0 0 1 18.827-24.346A2488 2488 0 0 0 9376 1531.5c4.583-5.97 9.204-11.91 13.828-17.848q5.108-6.559 10.172-13.152c4.583-5.97 9.204-11.91 13.828-17.848q5.108-6.559 10.172-13.152c4.583-5.97 9.204-11.91 13.828-17.848q5.108-6.559 10.172-13.152c4.583-5.97 9.204-11.91 13.828-17.848q5.108-6.559 10.172-13.152c4.583-5.97 9.204-11.91 13.828-17.848q5.108-6.559 10.172-13.152c4.583-5.97 9.204-11.91 13.828-17.848q5.108-6.559 10.172-13.152c4.583-5.97 9.204-11.91 13.828-17.848q5.108-6.559 10.172-13.152c4.583-5.97 9.204-11.91 13.828-17.848q5.108-6.559 10.172-13.152c4.583-5.97 9.204-11.91 13.828-17.848q5.108-6.559 10.172-13.152c4.583-5.97 9.204-11.91 13.828-17.848q5.108-6.559 10.172-13.152c4.583-5.97 9.204-11.91 13.828-17.848q5.108-6.559 10.172-13.152c4.583-5.97 9.204-11.91 13.828-17.848q5.108-6.559 10.172-13.152c4.583-5.97 9.204-11.91 13.828-17.848q5.108-6.559 10.172-13.152c4.583-5.97 9.204-11.91 13.828-17.848q5.108-6.559 10.172-13.152c4.583-5.97 9.204-11.91 13.828-17.848q5.108-6.559 10.172-13.152a2843 2843 0 0 1 12-15.5c9.714-11.658 9.714-11.658 18.196-24.131 1.804-1.869 1.804-1.869 4.835-2.368M821 1025h748v1785h1861c-6.663 9.995-6.663 9.995-10.625 14.563-3.94 4.617-7.636 9.373-11.25 14.25-3.924 5.29-7.923 10.5-12.062 15.624a686 686 0 0 0-12.563 16.063 824 824 0 0 1-14.196 18.124 705 705 0 0 0-10.377 13.254c-8.165 10.667-16.441 21.248-24.75 31.802-5.489 6.979-10.932 13.994-16.379 21.006q-5.268 6.78-10.54 13.554-4.434 5.7-8.863 11.4a4446 4446 0 0 1-17.219 22.042c-6.093 7.746-12.13 15.535-18.176 23.318-6.921 8.91-13.845 17.817-20.824 26.682-5.489 6.978-10.93 13.992-16.378 21.004q-5.268 6.78-10.54 13.554-4.434 5.7-8.863 11.4a4446 4446 0 0 1-17.219 22.042c-5.489 6.978-10.93 13.992-16.378 21.004q-5.268 6.78-10.54 13.554-4.434 5.7-8.863 11.4a4446 4446 0 0 1-17.219 22.042c-5.489 6.978-10.93 13.992-16.378 21.004q-5.268 6.78-10.54 13.554-4.434 5.7-8.863 11.4a4446 4446 0 0 1-17.219 22.042c-5.489 6.978-10.93 13.992-16.378 21.004q-5.268 6.78-10.54 13.554-4.434 5.7-8.863 11.4a4446 4446 0 0 1-17.219 22.042c-5.489 6.978-10.93 13.992-16.378 21.004q-5.268 6.78-10.54 13.554-4.434 5.7-8.863 11.4A4131 4131 0 0 1 2978.5 3390a4976 4976 0 0 0-12.437 15.875l-1.59 2.031-1.625 2.086-1.771 2.123c-1.69 2.346-2.712 4.21-3.859 6.805-2.525 5.066-5.348 9.056-10.218 12.08-10.228 2.981-21.497 2.154-32.046 1.997-4.52-.049-9.037-.004-13.556.028-7.948.043-15.893.028-23.84-.027-11.874-.081-23.747-.07-35.62-.04-20.248.047-40.494.019-60.741-.05q-31.116-.108-62.232-.099l-3.999.001-16.127.007a78863 78863 0 0 1-47.416.007c-33.82-.004-67.64-.067-101.46-.135l-34.984-.069c-.717 0-1.434-.002-2.173-.004-52.883-.1-105.767-.091-158.65-.102-156.969-.084-313.937-.308-470.906-.514L821 3431zM6703 1025h2613c-1.834 3.668-3.74 6.408-6.25 9.625l-1.309 1.684q-1.434 1.843-2.873 3.684-3.388 4.341-6.766 8.69l-3.627 4.661A2464 2464 0 0 0 9285 1066.5c-4.583 5.97-9.204 11.91-13.828 17.848A2491 2491 0 0 0 9261 1097.5c-4.583 5.97-9.204 11.91-13.828 17.848A2491 2491 0 0 0 9237 1128.5c-4.583 5.97-9.204 11.91-13.828 17.848A2491 2491 0 0 0 9213 1159.5c-4.583 5.97-9.204 11.91-13.828 17.848A2491 2491 0 0 0 9189 1190.5c-4.583 5.97-9.204 11.91-13.828 17.848A2491 2491 0 0 0 9165 1221.5c-4.583 5.97-9.204 11.91-13.828 17.848A2491 2491 0 0 0 9141 1252.5c-4.583 5.97-9.204 11.91-13.828 17.848A2491 2491 0 0 0 9117 1283.5c-4.583 5.97-9.204 11.91-13.828 17.848A2491 2491 0 0 0 9093 1314.5c-4.583 5.97-9.204 11.91-13.828 17.848A2491 2491 0 0 0 9069 1345.5c-4.583 5.97-9.204 11.91-13.828 17.848A2491 2491 0 0 0 9045 1376.5c-4.583 5.97-9.204 11.91-13.828 17.848A2491 2491 0 0 0 9021 1407.5c-4.583 5.97-9.204 11.91-13.828 17.848A2491 2491 0 0 0 8997 1438.5c-4.583 5.97-9.204 11.91-13.828 17.848A2491 2491 0 0 0 8973 1469.5c-4.583 5.97-9.204 11.91-13.828 17.848A2491 2491 0 0 0 8949 1500.5c-4.583 5.97-9.204 11.91-13.828 17.848A2491 2491 0 0 0 8925 1531.5c-4.583 5.97-9.204 11.91-13.828 17.848A2491 2491 0 0 0 8901 1562.5c-4.583 5.97-9.204 11.91-13.828 17.848A2491 2491 0 0 0 8877 1593.5a2853 2853 0 0 1-12 15.5 4815 4815 0 0 0-12.125 15.625l-2.331 2.867c-1.874 2.42-3.18 4.768-4.422 7.561-2.494 5.029-5.279 8.967-10.122 11.947-10.27 2.97-21.56 2.154-32.147 1.997-4.533-.049-9.064-.004-13.596.028-7.973.043-15.943.028-23.915-.027-11.934-.081-23.867-.07-35.801-.04-20.338.047-40.675.019-61.013-.05-20.613-.07-41.226-.106-61.84-.098l-3.943.001-17.902.008q-21.409.01-42.817.007h-2.075c-33.748-.003-67.495-.067-101.243-.134l-35.64-.07-2.237-.004a68080 68080 0 0 0-109.35-.102q-20.24-.008-40.48-.013-50.315-.016-100.63-.045l-2.314-.001q-74.185-.042-148.369-.143l-2.392-.003q-36.053-.048-72.105-.1-39.896-.058-79.793-.112l-2.423-.004a319596 319596 0 0 0-237.558-.22q-44.417-.03-88.835-.058l-2.386-.001-7.152-.005a1713968 1713968 0 0 1-200.034-.137c-73.84-.054-147.68-.116-278.066-.261l-13.342-.016c-104.534-.12-209.068-.261-313.602-.397z"/><path d="M0 0c5.322 3.548 5.738 10.968 7 17 1.31 6.902 2.282 13.856 3.25 20.813l.437 3.087c2.805 19.934 5.076 39.926 7.246 59.938l.746 6.859c1.08 9.935 2.098 19.876 3.076 29.822q.376 3.793.76 7.586c3.543 35.395 4.884 70.818 6.126 106.357-1.486 75.822-1.486 75.822 26.573 143.018 8.8 7.488 20.838 6.068 31.633 5.997q3.053.001 6.104.008c5.577.008 11.154-.01 16.732-.032 6.02-.02 12.039-.016 18.059-.015 11.105-.002 22.21-.023 33.315-.053a22280 22280 0 0 1 34.9-.069l6.223-.008c19.276-.026 38.552-.06 57.829-.112l2.2-.005 17.694-.048q34.532-.092 69.064-.119a48320 48320 0 0 0 85.874-.142l2.057-.005q15.38-.035 30.763-.04 17.481-.009 34.962-.078c5.95-.023 11.898-.038 17.847-.032q8.16.008 16.322-.047 2.96-.015 5.919 0c2.673.01 5.345-.01 8.018-.038.773.01 1.547.02 2.343.032 4.011-.077 5.73-.51 8.866-3.098 11.011-13.756 11.065-33.634 11.72-50.486.095-2.365.213-4.727.342-7.09l.104-2.42c.362-5.172 1.207-7.874 5.021-11.642l2.496-2.555L584 320a240 240 0 0 0 3.188-3.687c5.124-5.877 10.5-11.526 15.837-17.209q3.047-3.248 6.088-6.502c6.489-6.929 13.012-13.787 19.77-20.454 2.675-2.714 5.177-5.553 7.644-8.457 1.437-1.65 2.838-3.235 4.473-4.691h2q1.227 3.31 2.438 6.625l1.37 3.727c8.778 26.877-3.804 58.319-10.948 84.356-2.389 9.141-3.693 18.585.827 27.265 5.16 7.97 12.604 12.358 21.778 14.64 31.515 4.808 64.15-20.4 89.485-35.884 12.425-7.592 24.947-15.019 37.48-22.432q5.93-3.51 11.851-7.035C852.106 297.644 911.565 267.037 974 252l2.731-.671c29.759-7.078 58.91-5.145 85.263 10.884 4.177 2.707 8.123 5.676 12.006 8.787l1.694 1.353c24.193 19.506 44.758 44.988 49.306 76.647 1.223 13.578.01 25.344-5 38l-5 13h311c-5.187-41.972-5.187-41.972-23-80-4.309 1.579-6.728 4.887-9.562 8.313l-1.607 1.887c-2.56 3.019-5.054 6.063-7.429 9.23-15.638 20.452-40.718 27.241-65.043 31.156-34.81 4.025-69.806-3.244-97.673-25.202-12.297-10.096-21.027-21.816-24.373-37.634-3.523-42.275 22.901-80.943 48.98-111.925a887 887 0 0 1 4.156-4.837c2.264-2.652 4.409-5.362 6.551-8.113 10.173-12.487 22.136-24.182 35-33.875l2.8-2.21c15.986-12.408 33.57-21.663 53.2-26.79l2.477-.684c17.849-4.108 37.113-2.289 52.949 7.004 21.343 13.927 35.113 34.39 46.574 56.68l1.225 2.372c38.109 74.662 50.28 156.144 38.775 238.628l-.41 2.97c-10.647 76.926-10.647 76.926-20.59 90.03-2.626.625-2.626.625-5.861.626l-3.74.037-4.137-.037q-2.196.007-4.39.022c-4.05.018-8.099.006-12.148-.012-4.395-.013-8.79.002-13.185.014q-11.568.023-23.137 0c-11.468-.021-22.936-.014-34.405 0-20.48.022-40.961.016-61.442-.002a49926 49926 0 0 0-57.383-.017l-14.462.003c-45.263.01-90.526-.008-135.789-.04q-60.339-.041-120.679-.018l-30.886.012h-3.84a139086 139086 0 0 1-118.81-.015 69353 69353 0 0 0-53.737.003q-30.556.013-61.113-.024-17.106-.022-34.213-.004-11.423.01-22.847-.02c-4.34-.01-8.681-.014-13.022 0q-5.928.017-11.855-.015a424 424 0 0 0-4.254.008c-15.761.102-26.712-4.644-38.04-15.458C578.252 494.619 561 476.86 561 466h-2l-.354 2.172c-.675 2.955-1.675 5.35-2.982 8.082l-1.462 3.062-1.577 3.247-1.61 3.335C537.612 513.388 537.612 513.388 534 517c-2.689.104-5.352.142-8.041.139l-2.598.008q-4.365.011-8.729.011l-6.276.015q-8.668.02-17.335.028-9.33.013-18.661.034-16.18.032-32.36.056-16.975.024-33.951.056l-2.13.004-10.707.02q-37.95.071-75.901.132-36.876.058-73.752.125l-2.295.004-71.458.128Q98.403 517.886 27 518l-.925 1.875a5479 5479 0 0 1-4.243 8.555l-1.455 2.948A271.5 271.5 0 0 1-20 591l-2.258 2.59C-32.28 604.96-42.809 615.01-55 624l-3.215 2.371C-92.516 650.836-132.459 662.364-174 667l-2.7.31c-34.58 3.439-70.247 1.74-103.3-9.31l-2.188-.727C-292.58 653.757-302.335 649.168-312 644l-1.836-.977c-30.308-16.279-57.256-40.336-67.445-74.12-3.073-10.86-3.96-21.159-3.969-32.403l-.002-2.082c.02-12.667 1.032-24.94 3.252-37.418l.44-2.63c4.812-28.07 15.29-55.783 27.56-81.37l1.42-2.995c7.386-15.483 15.718-30.324 24.58-45.005l1.366-2.28c9.916-16.487 20.817-32.353 33.634-46.72l2.363-2.73c4.804-5.485 9.806-10.856 15.637-15.27h2c.277 4.137.532 8.272.734 12.414.137 2.723.364 5.338.72 8.047.96 10.039-3.996 15.868-9.841 23.443-26.397 34.301-35.989 72.69-30.595 115.867 2.448 17.266 6.811 35.118 18.982 48.229l2.172 2.445c27.85 29.762 75.66 36.128 114.138 37.646 48.306 1.573 98.383-5.781 141.965-27.713l2.692-1.353L-30 516l-.317-2.727A17398 17398 0 0 1-48.66 348.969l-1.808-16.925q-3.39-31.706-6.762-63.413-1.867-17.552-3.742-35.102a38984 38984 0 0 1-5.349-50.37l-.233-2.211q-.808-7.635-1.624-15.268-1.079-10.1-2.135-20.202-.385-3.654-.778-7.308a2458 2458 0 0 1-1.039-9.883l-.317-2.88c-.741-7.341-.626-13.33 3.334-19.786l1.822-3.007 1.978-3.177 2.041-3.334C-61.197 92.725-59.103 89.36-57 86l1.87-2.99A1760 1760 0 0 1-43 64l1.647-2.557c10.995-17.05 22.25-33.923 33.666-50.693l1.978-2.908 1.822-2.67L-2.268 2.8C-1 1-1 1 0 0m1285.207 227.52c-2.69 3.022-4.998 6.093-7.207 9.48 4.252 10.108 17.892 15.739 27.025 20.87a98 98 0 0 1 3.735 2.245c7.972 4.965 16.388 5.273 25.553 5.26h3.145c11.03-.16 23.628-1.104 33.542-6.375-10.95-18.092-25.77-40.479-47-47-15.573-3.658-28.384 4.684-38.793 15.52M806.075 383.594C796.458 388.872 786.736 393.947 777 399v1h252c-12.773-25.547-34.938-45.338-62.105-54.41-57.645-18.31-111.34 10.824-160.82 38.004" style="fill:#be1522;fill-opacity:1" transform="translate(7076 4018)"/><path d="m0 0 2.222.737c9.016 41.695-11.73 102.847-29.856 140.424-1.279 2.41-1.279 2.41-1.144 4.576 29.575 13.158 70.05 7.48 101.771 6.358 10.415-.362 20.81-.471 31.23-.358l.102-2.06c.529-8.15 1.965-15.966 3.744-23.913.466-2.088.915-4.18 1.362-6.272 2.718-12.487 6.212-22.765 13.666-33.255l1.991-2.857a974 974 0 0 1 6.134-8.643l1.922-2.682c6.738-9.351 13.635-18.515 21.078-27.318q1.322-1.6 2.641-3.2c21.64-26.123 21.64-26.123 32.484-27.738l2.875-.062a196 196 0 0 1-4.652 19.492l-1.588 5.51-.839 2.898c-15.912 54.288-15.912 54.288-23.92 110.1h82c-1.31-12.954-1.31-12.954-2.633-25.906-3.448-34.206 11.307-54.19 32.445-80.094q2.092-2.502 4.187-5l4.438-5.5c3.922-4.798 8.03-9.39 12.23-13.946a217 217 0 0 0 5.77-6.617C311.48 1.11 311.48 1.11 318.222-.263q.036 21.063.052 42.127.007 9.788.024 19.576c.086 50.086.086 50.086-.497 74.129l-.056 2.42c-.466 19.702-1.221 39.904-10.566 57.658-4.69 9.172-8.445 18.737-12.273 28.292a2689 2689 0 0 1-3.744 9.28c-3.95 9.792-7.803 19.591-11.199 29.591-1.647 4.833-1.647 4.833-2.74 5.927-2.02.12-4.043.17-6.065.194l-3.998.052-4.428.042q-2.316.025-4.631.054c-14.116.159-28.232.243-42.348.31-10.436.05-20.87.136-31.306.268-7.335.09-14.67.138-22.005.155-4.382.012-8.762.042-13.143.118-4.127.071-8.251.09-12.379.07q-2.266 0-4.532.061c-11.417.292-11.417.292-15.786-3.746-2.022-2.776-3.7-5.588-5.38-8.578-1.576-1.832-3.208-3.377-5-5l-1.941 1.976-2.621 2.649-2.566 2.601-2.872 2.774-1.277 1.559c-3.792 4.104-6.994 4.892-12.525 5.162-2.803.04-5.601.003-8.404-.04q-2.322-.003-4.644.002c-4.188.002-8.375-.033-12.562-.075-4.382-.038-8.763-.041-13.145-.048-8.29-.019-16.581-.068-24.872-.128-9.441-.067-18.882-.1-28.324-.13-19.416-.063-38.831-.169-58.247-.302l-.487-1.893c-.745-2.872-1.504-5.74-2.263-8.607l-.765-2.977c-1.59-5.96-3.61-11.074-6.485-16.523v-2c-3.206 3.005-5.934 6.147-8.625 9.625-6.908 8.703-14.104 16.724-24.375 21.375l-2 1c-10.586 1.788-21.663 1.13-32.358 1.109l-6.56-.001q-8.992-.005-17.983-.018c-6.472-.009-12.943-.011-19.414-.015q-22.324-.015-44.648-.047-11.044-.015-22.09-.027a181467 181467 0 0 1-80.447-.11l-2.378-.005-14.319-.022q-38.343-.059-76.685-.082a71454 71454 0 0 1-90.108-.112l-2.22-.004c-11.747-.02-23.494-.026-35.24-.028q-17.741-.004-35.483-.051c-6.396-.017-12.793-.027-19.19-.02q-8.808.009-17.617-.032a941 941 0 0 0-6.325.002c-22.264.075-47.131-1.375-65.935-14.537l-.277 1.921c-1.007 4.288-2.635 8.252-4.285 12.329l-1.091 2.696c-8.748 21.385-19.968 41.194-32.16 60.804l-1.81 2.918c-4.187 6.657-8.71 13.005-13.377 19.332a588 588 0 0 0-2.582 3.644c-23.868 33.9-52.958 69.518-93.418 83.356l-2.855.992c-57.975 17.983-140.002-34.397-190.085-60.59-44.252-23.6-44.252-23.6-52.06-41.402-1.188-5.099-1.597-9.263 1-14 5.21.476 8.738 2.41 13 5.25a1575 1575 0 0 0 4.254 2.726l2.305 1.478c22.283 14.112 45.733 27.51 72.441 30.546l3.372.402c54.097 4.928 104.02-22.347 144.329-55.814 2.75-2.31 5.486-4.638 8.217-6.971a479 479 0 0 1 8.582-7.117 738 738 0 0 0 12-10 738 738 0 0 1 12-10 902 902 0 0 0 18.5-15.5l1.568-1.336c14.149-12.117 28.777-28.442 30.745-47.727-1.326-16.71-12.433-31.979-22.313-44.937l-1.34-1.762c-5.388-7.038-10.986-13.88-16.74-20.621a421 421 0 0 1-9.935-12.133c-2.977-3.727-6.041-7.381-9.102-11.04l-1.883-2.444-1.503-1.84c-.869-3.781 1.554-6.694 3.44-9.848l1.363-2.358a806 806 0 0 1 4.7-7.954l1.746-2.95c11.462-19.37 23.335-38.482 35.376-57.496 4.324-6.832 8.6-13.693 12.878-20.554 16.151 6.084 29.353 38.72 38.019 53.068 9.455 15.65 19.174 30.912 30.981 44.932l2.262 2.707c15.613 17.976 37.024 30.085 60.738 33.293 3.1.138 6.195.132 9.297.123l2.825.003c3.135.003 6.27-.002 9.404-.006l6.797.002q9.352.003 18.703-.006 9.045-.005 18.09-.003 18.503.002 37.006-.008 18.322-.01 36.643-.01h2.301l11.569-.002q40.974-.004 81.949-.018 39.808-.014 79.615-.02h2.479l77.174-.014q77.075-.015 154.148-.041 1.461-3.603 2.913-7.208l.832-2.05c1.918-4.766 3.506-9.444 4.505-14.492l.512-2.348c.944-4.774 1.315-9.3 1.293-14.168.069-19.015 6.417-30.164 17.635-44.715a242 242 0 0 0 6.076-8.328c5.735-8.188 11.762-16.07 18.234-23.691l2.516-3.075c6.29-7.617 13.03-14.79 19.922-21.863l2.62-2.75 2.501-2.527 2.228-2.285C-2.778-.263-2.778-.263 0 0" style="fill:#be1522;fill-opacity:1" transform="translate(3414.778 4266.263)"/><path d="M0 0c42.762 41.502 78.263 114.411 79.255 174.167C79.5 193.93 78.345 213.385 76 233l-.44 3.775C72.433 262.69 66.95 288.24 61.743 313.8l-.7 3.447C56.469 339.53 56.469 339.53 55 341a71 71 0 0 1-4.55.129l-3 .01-3.334-.005-3.511.007q-4.848.007-9.695.004-5.22.002-10.44.01-10.242.012-20.482.012-8.331 0-16.662.006-23.625.013-47.249.012h-5.155q-20.646.002-41.292.023-21.205.023-42.41.02-11.903-.001-23.804.014-10.145.014-20.291.005a2975 2975 0 0 0-10.34.005c-26.38.054-50.08-.96-70-20.408C-291.04 306.728-297.327 290.589-303 272c-4.07 6.367-7.778 12.89-11.437 19.5a1358 1358 0 0 1-16.768 29.268 490 490 0 0 0-9.613 17.12C-342 340-342 340-343 341c-2.551.107-5.076.148-7.627.147l-2.451.011q-4.099.015-8.198.019l-5.854.02c-6.437.021-12.874.031-19.311.041l-6.66.013q-15.674.029-31.348.041-18.03.015-36.062.077-13.964.044-27.927.048c-5.548.002-11.097.011-16.645.036-64.867.282-64.867.282-85.917-14.453l-.372 2.663C-599.42 372.433-634.633 416.643-661 450l-2.418 3.066c-5.562 6.92-11.471 13.499-17.582 19.934l-1.68 1.783c-20.275 21.384-46.489 41.793-77.19 43.181-64.96 1.088-169.448-49.314-216.927-93.73-5.767-5.849-8.541-9.87-8.578-18.296.095-1.981.21-3.962.375-5.938 3.307-1.101 4.657-1.155 7.884.304l3.167 2 1.73 1.075q1.83 1.14 3.648 2.297a549 549 0 0 0 5.71 3.577q3.757 2.327 7.506 4.667c36.18 22.431 73.616 31.343 115.793 21.58 27.453-6.82 52.876-19.734 75.562-36.5l1.663-1.224c9.071-6.725 17.726-13.978 26.414-21.185 2.547-2.107 5.11-4.193 7.673-6.279 4.518-3.689 8.97-7.45 13.415-11.227A659 659 0 0 1-704.5 350.5 852 852 0 0 0-686 335l1.568-1.352c14.498-12.596 30.481-28.699 31.932-48.898-1.1-25.085-25.615-49.608-40.72-67.622-3.09-3.694-6.154-7.41-9.217-11.128l-1.774-2.15A508 508 0 0 1-716 189c4.195-8.785 8.95-17.098 14.063-25.375a5611 5611 0 0 0 5.68-9.274c3.447-5.638 6.796-11.333 10.132-17.038a531 531 0 0 1 14.348-23.047 448 448 0 0 0 6.023-9.47l1.644-2.641a998 998 0 0 0 3.14-5.09l1.439-2.311 1.263-2.053C-657 91-657 91-654 89c12.473 13.88 22.293 29.813 31.732 45.852 10.97 18.585 22.21 36.716 36.268 53.148l1.84 2.281c14.918 17.915 37.168 29.556 60.16 32.719 2.886.145 5.767.155 8.656.158l2.602.015c2.87.016 5.739.024 8.609.032l6.18.03q8.382.04 16.765.068c5.841.022 11.683.05 17.524.076q16.59.074 33.181.138 18.888.076 37.777.16 38.853.17 77.706.323l.951-5.202.535-2.927c2.406-13.444 3.792-26.933 4.639-40.559l.132-2.052c.461-7.304.785-14.568.77-21.889.029-21.129.029-21.129 7.328-28.785L-298 120c1.794-2.18 3.482-4.438 5.188-6.687 4.763-6.085 9.685-12.039 14.615-17.989a559 559 0 0 0 10.822-13.511c4.19-5.39 8.553-10.601 13.025-15.76a394 394 0 0 0 9.162-10.99c3.468-4.27 7.032-8.44 11.188-12.063h1c1.068 8.35 1.2 16.655 1.188 25.063l-.002 2.167c-.075 33.252-3.064 66.603-8.322 99.433-2.01 12.866-.33 22.547 7.136 33.337 7.987 10.827 20.947 17.485 34 20 2.931.266 5.84.286 8.783.278 1.272.01 1.272.01 2.57.018 2.821.017 5.643.02 8.465.023l6.092.03c5.5.028 11 .043 16.499.056 5.752.015 11.504.042 17.256.068 10.887.047 21.773.083 32.66.116 12.397.039 24.793.088 37.19.138q38.243.155 76.485.273-1.906-5.03-3.816-10.058l-1.081-2.855c-2.738-7.205-5.635-14.303-8.79-21.337l-1.524-3.402C-21.87 156.226-38.505 129.11-60 104a241 241 0 0 1 10.438-18.062c5.857-9.24 11.262-18.734 16.703-28.223 3.016-5.26 6.07-10.498 9.14-15.727C-15.574 28.122-7.754 14.086 0 0" style="fill:#be1522;fill-opacity:1" transform="translate(5775 4194)"/><path d="M0 0c4.45 4.106 7.704 8.666 11.063 13.688l1.72 2.55q1.764 2.614 3.52 5.235a933 933 0 0 0 4.685 6.898c28.175 41.35 56.81 89.19 57.25 140.707l.03 2.884c.199 24.3-.69 47.998-4.268 72.038l-.346 2.34c-4.064 27.27-9.703 54.247-15.396 81.215l-.646 3.071-.6 2.819-.521 2.458C56 338 56 338 55 341a159999 159999 0 0 1-124.44.111q-20.73.015-41.458.043-21.286.028-42.572.034-13.124.004-26.248.028-9.012.015-18.024.011c-3.46-.001-6.921 0-10.382.011-26.879.072-50.265-1.416-70.751-20.675-12.79-13.795-19.448-30.97-25.125-48.563-7.244 12.79-14.47 25.59-21.625 38.43a2317 2317 0 0 1-11.611 20.49l-1.683 2.943L-343 341q-38.988.106-77.976.155c-12.07.016-24.141.037-36.211.071q-15.794.046-31.587.056c-5.567.004-11.134.013-16.702.035q-7.884.03-15.769.022-2.87.001-5.741.019c-20.83.12-44.394-1.024-62.014-13.358h-2l-.89 2.586C-608.585 377.633-637.138 422.566-670 460l-1.918 2.219A746 746 0 0 1-677 468l-1.969 2.285c-20.52 23.456-47.453 44.137-79.32 47.488-46.072 2.813-96.966-25.853-137.852-44.908q-2.677-1.244-5.356-2.482c-24.48-11.35-49.788-23.846-70.503-41.383l-2.504-1.879c-2.745-2.333-4.657-4.754-6.746-7.683l-2.078-2.88c-2.241-3.429-2.826-6.041-2.86-10.058l-.042-2.344C-986 402-986 402-984 399c4.067.584 6.868 1.888 10.36 4.027l3.104 1.887 3.286 2.024 6.805 4.125c2.994 1.825 5.986 3.653 8.97 5.496 34.38 21.227 71.031 27.876 110.563 19.144 39.27-9.476 71.52-31.69 102.037-57.144 2.527-2.101 5.075-4.174 7.625-6.247 4.518-3.689 8.97-7.45 13.415-11.227A659 659 0 0 1-707.5 352.5c6.24-5.082 12.377-10.279 18.5-15.5l2.215-1.867c13.452-11.499 31.23-28.144 33.058-46.945.273-8.554-1.414-14.604-5.273-22.188l-1.246-2.598C-666.731 250.645-675.893 238.977-685 228l-4.437-5.437L-694 217l-4.5-5.5q-3.462-4.232-6.926-8.46l-2.386-2.915-2.145-2.617L-712 195l-2.324-2.508C-716 190-716 190-715.781 187.673c.863-2.954 2.052-5.273 3.597-7.935l1.791-3.1 1.956-3.326 2.029-3.481C-699.154 157.422-691.6 145.199-684 133l3.887-6.266A1797 1797 0 0 1-656 89c5.16 4.04 9.011 8.28 12.688 13.688l1.54 2.226c7.694 11.22 14.88 22.76 21.71 34.524C-608.81 158.777-596.485 177.757-581 194l1.652 1.844c13.502 14.525 36.348 26.244 56.268 27.253a361 361 0 0 0 6.736.061l2.602.015c2.87.016 5.739.024 8.609.032l6.18.03q8.382.04 16.765.068c5.841.022 11.683.05 17.524.076q16.59.074 33.181.138 18.888.076 37.777.16 38.853.17 77.706.323.976-4.72 1.937-9.44l.552-2.664c1.723-8.494 2.574-16.95 3.199-25.583q.182-2.342.366-4.682a698 698 0 0 0 1.735-33.256q.102-2.687.211-5.375l.096-3.128c.322-6.296.892-10.2 5.154-15.122l1.332-1.592a248 248 0 0 1 2.885-3.38c2.166-2.513 4.242-5.095 6.325-7.677 1.655-2.05 3.322-4.092 4.99-6.132a647 647 0 0 0 8.656-10.906c8.633-11.057 17.616-21.838 26.717-32.512 3.685-4.33 7.248-8.752 10.775-13.211 2.165-2.447 4.466-4.376 7.07-6.34 1.566 1.566 1.143 3.107 1.161 5.284l.029 2.787.013 3.066.021 3.18c.018 3.457.024 6.914.026 10.37l.002 3.576c-.027 29.571-2.278 58.515-6.626 87.756-2.23 15.301-4.315 30.461 5.358 43.696 9.025 10.64 20.358 17.293 34.016 20.285 2.788.104 5.551.155 8.34.158l2.571.015c2.849.016 5.697.024 8.545.032l6.12.03q8.314.04 16.629.068c5.79.022 11.582.05 17.373.076q16.452.074 32.904.138 18.729.076 37.458.16 38.53.17 77.06.323-2.406-5.85-4.818-11.697-.816-1.98-1.63-3.96c-14.614-35.537-31.432-74.116-59.322-101.448C-60 105-60 105-59.934 102.633c1.15-3.242 2.752-5.719 4.684-8.57 15.44-23.308 28.852-48.113 42.442-72.527C-8.728 14.232-4.511 7.046 0 0" style="fill:#be1522;fill-opacity:1" transform="translate(10614 4194)"/><path d="M0 0c37.707 36.648 71.153 100.815 78 153l.286 2.096c6.167 51.924-5.574 106.021-15.919 156.58l-.542 2.657c-1.245 6.027-2.566 12.036-3.905 18.043L56 341a150027 150027 0 0 1-120.514.111q-20.073.015-40.148.043-20.614.028-41.23.034-12.708.004-25.418.028-8.728.015-17.456.011-5.027-.002-10.055.011c-27.712.077-50.633-1.715-71.683-21.66C-282.748 306.931-288.579 289.406-294 273h-2l-1.095 2.053c-7.053 13.213-14.182 26.364-21.672 39.336-3.215 5.574-6.41 11.16-9.6 16.748L-334 341a176880 176880 0 0 1-131.031.111q-21.817.015-43.636.043-22.42.029-44.84.034-13.812.004-27.625.028-9.496.015-18.994.011c-3.642-.001-7.284 0-10.926.011-43.404.123-86.057-4.406-118.823-35.738-22.175-23.226-27.001-53.587-26.41-84.441C-754.97 168.503-737.11 101.213-703 60l1.988-2.477C-696.083 51.648-690.743 46.524-683 45c6.272-.448 6.272-.448 9.438 1.5L-672 48c-.504 6.543-2.255 11.764-4.824 17.773l-1.164 2.796q-1.838 4.408-3.7 8.806c-20.358 46.708-20.358 46.708-15.496 95.941 9.742 22.087 27.991 34.638 49.934 43.184 18.66 6.642 37.01 6.953 56.6 6.933 3.817 0 7.633.016 11.45.03q9.89.033 19.779.04c9.532.006 19.064.029 28.596.056q23.205.063 46.408.095 22.525.03 45.05.084l2.81.006 13.96.034c38.533.093 77.065.164 115.597.222q.974-5.5 1.939-11.003l.553-3.123a276 276 0 0 0 3.133-23.999l.383-3.986a293 293 0 0 0 1.199-22.6c.563-30.189.563-30.189 10.371-40.02l1.71-1.599c3.073-2.997 5.62-6.43 8.274-9.795q1.64-2.01 3.29-4.012c2.914-3.56 5.759-7.17 8.586-10.8 8.631-11.056 17.615-21.833 26.712-32.508 3.746-4.402 7.374-8.89 10.975-13.41C-228 45-228 45-225 43c1.19 2.381 1.14 3.863 1.161 6.521l.029 2.867.013 3.135.021 3.26c.018 3.531.024 7.061.026 10.592l.002 3.65c-.026 28.995-2.387 57.226-6.626 85.893-2.257 15.593-4.197 30.375 5.624 43.77 8.662 10.375 19.535 17.11 32.75 20.312 2.834.176 5.566.262 8.397.24l2.48.006c2.729.003 5.457-.008 8.185-.019h5.885c5.316.002 10.631-.01 15.947-.024 5.558-.013 11.117-.014 16.676-.016 10.522-.006 21.043-.023 31.565-.043 11.98-.022 23.961-.033 35.942-.043Q-29.962 223.068 7 223q-2.576-6.421-5.166-12.838-.876-2.171-1.747-4.344c-13.088-32.64-28.96-65.424-51.99-92.298-2.835-3.406-5.462-6.958-8.097-10.52l.924-1.468C-38.256 68.368-19.057 34.2 0 0" style="fill:#be1522;fill-opacity:1" transform="translate(4823 4194)"/><path d="M0 0c4.624 4.26 8.066 9.085 11.625 14.25l1.871 2.7C24.707 33.206 35.02 49.963 45 67l1.564 2.67C94.514 152.225 77.75 240.172 56 338l-1 3a150027 150027 0 0 1-120.514.111q-20.073.015-40.148.043-20.614.028-41.23.034-12.708.004-25.418.028-8.728.015-17.456.011-5.027-.002-10.055.011c-25.992.072-50.24-1.091-69.929-20.363-13.26-13.642-19.512-31.026-25.25-48.875-2.48 3.128-4.397 6.385-6.3 9.89l-1.942 3.556-1.023 1.88c-7.107 13.056-14.336 26.047-22.06 38.752-1.725 2.904-1.725 2.904-3.09 6.023-3.983 8.219-3.983 8.219-8.182 10.001-3.241.422-6.294.45-9.562.355l-3.708.035c-3.388.02-6.768-.013-10.155-.07-3.656-.048-7.312-.026-10.968-.013-7.163.015-14.324-.034-21.486-.103-8.358-.078-16.715-.09-25.073-.098a7582 7582 0 0 1-44.799-.193 9147 9147 0 0 0-43.349-.205l-2.69-.006-10.71-.024c-15.482-.034-30.964-.09-46.446-.153l-7.474-.029q-14.245-.055-28.49-.152-4.298-.03-8.597-.046c-40.478-.165-40.478-.165-59.521-4.525l-2.85-.642c-28.013-6.688-53.02-21.526-68.693-46.062-7.48-12.29-11.954-25.912-13.832-40.171l-.336-2.52C-762.069 195.808-745.776 141.342-724 95l1.065-2.277A288 288 0 0 1-716 79l1.041-1.936C-707.932 64.206-698.466 49.904-684 45c4.324-.518 7.264-.49 11 2 .523 5.08-.37 8.765-2.309 13.438l-1.501 3.676-.804 1.92c-.837 1.997-1.657 4-2.474 6.005a2312 2312 0 0 1-3.334 8.128c-6.342 15.39-12.296 30.73-16.578 46.833l-.809 2.984C-704.78 147.63-702.59 167.548-693 183c2.165 3.163 4.493 6.103 7 9l1.734 2.023c16.456 17.793 43.63 27.884 67.403 29.143 8.403.252 16.808.218 25.214.182 3.816-.013 7.632-.008 11.449-.006q9.89.001 19.779-.025c9.532-.024 19.064-.032 28.596-.036q23.205-.01 46.408-.055a45519 45519 0 0 1 61.82-.075c38.533-.031 77.065-.084 115.597-.151q.732-2.875 1.459-5.752l.82-3.235c.843-3.523 1.373-6.914 1.784-10.513l.23-2.008q.24-2.134.469-4.27c.246-2.292.507-4.583.77-6.873a371 371 0 0 0 1.968-26.927q.13-2.941.262-5.883c.168-3.772.264-7.537.32-11.312.422-12.766 3.936-20.17 12.468-29.62 1.858-2.06 3.574-4.222 5.298-6.396a939 939 0 0 1 3.214-3.836c4.29-5.148 8.514-10.333 12.625-15.625 4.423-5.683 9.02-11.192 13.696-16.668A479 479 0 0 0-245.5 65.5c3.398-4.162 6.807-8.313 10.25-12.437l1.357-1.649c2.707-3.226 5.52-5.896 8.893-8.414 4.27 40.57-.731 82.833-6.75 123-2.067 14.04-1.918 24.408 6.25 36.625 8.177 10.6 20.194 18.243 33.5 20.375 2.727.102 5.43.155 8.156.158l2.476.015c2.734.016 5.469.024 8.203.032l5.884.03q7.986.04 15.972.068c5.564.022 11.128.05 16.692.076q15.804.074 31.608.138 17.992.076 35.985.16 37.013.17 74.024.323a21725 21725 0 0 0-6.534-15.827c-14.774-35.82-31.435-73.632-59.27-101.411C-60 105-60 105-59.717 103.139c.762-2.275 1.728-4.086 2.982-6.131l1.426-2.35 1.558-2.533 3.313-5.46 1.73-2.848c11.865-19.583 23.197-39.484 34.437-59.43l1.772-3.143q1.628-2.892 3.25-5.787A332 332 0 0 1 0 0" style="fill:#be1522;fill-opacity:1" transform="translate(9662 4194)"/><path d="M0 0c9.078 7.057 17.702 14.588 26.03 22.51l2.54 2.344C41.68 37.342 54.061 53.594 58.03 71.51c-7.918-.92-15.762-2.235-23.625-3.539-27.005-4.402-56.481-4.648-83.375.54l-3.27.601c-39.383 7.27-39.383 7.27-71.73 29.398-4.242 6.614-3.985 14.397-2.379 21.903 2.959 9.375 8.25 15.626 16.794 20.366 26.857 13.863 62.178 13.065 90.585 4.731l2.43-.682c13.243-3.786 25.822-9.282 38.49-14.624 65.723-27.694 65.723-27.694 97.08-27.694-2.098 9.642-5.314 18.704-8.875 27.875l-.854 2.22c-5.481 14.228-11.27 28.349-17.68 42.186-1.227 2.726-2.16 5.46-3.042 8.315-2.228 6.7-4.277 12.589-10.78 16.064-5.21 2.262-10.62 3.76-16.081 5.278q-2.935.904-5.862 1.831a1033 1033 0 0 1-11.579 3.585c-6.713 2.07-13.202 4.561-19.684 7.271l-3.164 1.317c-41.312 17.454-80.898 38.668-114.188 69.07a111 111 0 0 1-5.398 4.55c-2.89 2.505-5.307 5.12-7.774 8.032a269 269 0 0 1-4.578 5.25c-24.272 27.415-37.437 61.829-35.668 98.493 1.608 20.69 12.78 37.79 28.094 51.198 65.845 52.13 173.291 50.338 252.929 50.769 3.963.022 7.927.05 11.89.076q11.187.073 22.374.138 12.765.075 25.532.16 26.195.168 52.388.322c-15.88 33.328-68.473 56.425-101 68l-2.935 1.05c-33.797 11.904-69.408 17.52-105.065 19.95l-2.399.176c-65.018 4.604-148.986 5.425-202.6-36.176l-2.333-1.804c-21.908-18.062-33.782-47.373-37.164-74.973-7.326-76.275 23.444-165.05 71.89-223.959a555 555 0 0 1 3.606-4.264l-1.75-.943a2465 2465 0 0 1-20.25-11.057l-2.549-1.405c-8.117-4.507-15.576-8.961-22.275-15.49-2.239-2.229-2.239-2.229-5.137-4.495-13.407-11.067-22.391-29.752-24.278-46.767-.905-11.535 1.131-21.14 5.24-31.843l1.55-4.285c11.29-30.303 26.876-60.284 45.45-86.715l1.252-1.806c21.728-31.306 49.656-63.975 88.775-71.8C-40.633-25.321-18.935-14.32 0 0" style="fill:#be1522;fill-opacity:1" transform="translate(2309.97 4235.49)"/><path d="m0 0 2 1c.642 2.506.642 2.506 1.202 5.907l.65 3.88.687 4.283.733 4.454q.989 6.037 1.95 12.079.605 3.784 1.215 7.567C23.183 130.935 34.148 224.775 30 344l-.375 2.97C23.698 392.233 7.336 434.636-19.5 471.563l-1.818 2.511-1.713 2.306-1.518 2.049C-26 480-26 480-29 481a191654 191654 0 0 1-27.653-206.79l-.267-2.01a61268 61268 0 0 0-4.402-32.972q-2.306-17.244-4.598-34.49-1.27-9.56-2.551-19.119-1.189-8.865-2.362-17.733-.43-3.236-.866-6.471-.594-4.417-1.174-8.836l-.35-2.562c-1.45-11.18-.354-18.628 4.223-29.017l.813-1.874c4.898-11.208 10.822-21.78 16.906-32.38 2.49-4.34 4.915-8.709 7.299-13.108 6.67-12.304 13.833-24.308 21.008-36.321 1.882-3.162 3.748-6.333 5.607-9.508C-11.831 18.355-6.275 8.986 0 0" style="fill:#be1522;fill-opacity:1" transform="translate(8703 4063)"/><path d="M0 0h2c15.812 95.46 29.223 191.458 27 352l-.52 3.314C20.879 402.024 2.114 443.8-27 481l-2-1c-.537-2.29-.537-2.29-.949-5.398l-.487-3.571-.513-3.974q-.28-2.091-.562-4.182c-.517-3.849-1.022-7.698-1.526-11.549-.544-4.145-1.098-8.29-1.652-12.434q-1.623-12.19-3.228-24.384c-1.246-9.463-2.502-18.924-3.758-28.385a62644 62644 0 0 1-6.702-50.65 60190 60190 0 0 0-6.507-49.163l-.406-3.056-.405-3.05q-3.712-27.962-7.41-55.925l-2.622-19.788a25210 25210 0 0 1-3.19-24.128q-.81-6.156-1.628-12.312-.75-5.636-1.488-11.274-.395-3.003-.799-6.005c-2.225-17.091 2.808-28.34 10.62-43.427 1.312-2.54 2.608-5.087 3.903-7.634 6.721-13.13 13.965-25.887 21.47-38.583 3.195-5.436 6.324-10.91 9.464-16.378C-5.863 7.396-5.863 7.396 0 0" style="fill:#be1522;fill-opacity:1" transform="translate(10824 4043)"/><path d="M0 0c1.92 3.343 2.573 6.442 3.202 10.231l.65 3.87.687 4.227.733 4.433c.796 4.828 1.575 9.658 2.353 14.489l.812 5.02C18.953 107.455 26.254 173.07 30 239l.146 2.46c.943 16.267 1.074 32.535 1.094 48.824q.008 4.455.041 8.91C31.548 334.926 27.39 368.986 16 403l-.705 2.147c-8.223 24.713-21.407 46.931-36.42 68.04l-1.687 2.381-1.57 2.162-1.388 1.92L-27 481h-2c-1.524-7.935-2.724-15.882-3.777-23.892l-.506-3.801q-.69-5.178-1.371-10.356-.741-5.603-1.487-11.205-1.456-10.963-2.906-21.928-1.695-12.801-3.394-25.601-3.034-22.874-6.062-45.748a188499 188499 0 0 0-5.863-44.244l-.365-2.747-.727-5.48-.362-2.731-.362-2.725a386632 386632 0 0 1-10.85-81.86l-2.015-15.209-.27-2.028q-.882-6.676-1.752-13.353-.921-7.05-1.896-14.094l-.872-6.497-.42-2.933c-1.016-7.724-.13-13.49 3.257-20.568q.822-1.89 1.637-3.781C-64.01 108.1-57.456 96.554-51 85l1.583-2.838c10.939-19.564 22.244-38.915 33.726-58.164q1.176-1.972 2.346-3.946C-9.217 13.098-5.02 6.354 0 0" style="fill:#be1522;fill-opacity:1" transform="translate(3865 4063)"/><path d="M0 0c2.115 3.172 2.51 4.942 3.126 8.65l.599 3.552.63 3.884.675 4.057q.905 5.474 1.788 10.95.555 3.428 1.114 6.855C21.558 121.67 30.233 206.168 32 291l.07 3.021C33.467 359.071 17.397 428.595-26 479l-3 2c-4.678-33.033-9.109-66.099-13.494-99.172q-1.465-11.054-2.934-22.108l-5.24-39.484-5.054-38.08-.316-2.379-7.586-57.138-4.314-32.507Q-69.473 178.567-71 167l-.433-3.277q-.627-4.747-1.25-9.496l-.376-2.85C-74.905 137.28-73.273 128.632-67 116l2.68-5.55c6.382-13.101 13.306-25.842 20.593-38.458 1.793-3.107 3.575-6.22 5.356-9.336C-27.941 44.448-17.26 26.388-6.187 8.563l1.22-1.972C-3.448 4.166-2.032 2.031 0 0" style="fill:#be1522;fill-opacity:1" transform="translate(5986 4043)"/><path d="M0 0c10.702 5.147 21.034 10.793 31.316 16.73 5.99 3.458 12.021 6.836 18.059 10.208A7488 7488 0 0 1 74.438 41l2.776 1.562q2.609 1.473 5.207 2.961a504 504 0 0 0 5.458 3.079l2.781 1.586 2.524 1.417L95 53c0 3.312-.327 3.81-2.238 6.336l-1.47 1.956-1.605 2.083c-.54.712-1.082 1.423-1.64 2.157-4.336 5.656-8.876 11.116-13.527 16.515a253 253 0 0 0-6.582 8.078c-3.655 4.613-7.57 8.946-11.555 13.273a298 298 0 0 0-6.07 6.852c-14.204 16.223-14.204 16.223-21.998 17.027-4.069-.34-7.11-1.788-10.67-3.644l-2.106-1.061a950 950 0 0 1-6.726-3.447q-2.33-1.186-4.66-2.368A2076 2076 0 0 1-9 110l-3.078-1.593a1464 1464 0 0 1-13.582-7.166c-5.659-3-11.347-5.946-17.035-8.891-4.355-2.26-8.687-4.542-12.957-6.96l-2.093-1.17a579 579 0 0 1-5.392-3.087c-2.708-1.443-2.708-1.443-4.83-.392-2.053 1.272-3.679 2.604-5.424 4.27l-1.902 1.8-1.957 1.876q-1.912 1.82-3.828 3.637l-1.963 1.863c-1.88 1.74-3.809 3.394-5.764 5.047-3.374 2.92-6.403 6.061-9.437 9.332a4102 4102 0 0 1-4.212 4.471 217 217 0 0 0-2.832 3.099c-7.717 8.571-7.717 8.571-12.222 9.231-2.717-.468-4.958-1.281-7.492-2.367l-2.752-.995c-3.064-1.143-6.058-2.398-9.06-3.692l-3.38-1.448C-164.602 106.205-191.972 94.028-211 75c.334-3.313 1.647-5.04 3.914-7.39l1.797-1.89 1.914-1.97q1.929-2.022 3.855-4.047l1.861-1.947a172 172 0 0 0 5.596-6.256c2.635-3.064 5.439-5.896 8.32-8.727 1.79-1.821 3.456-3.71 5.118-5.648 5.5-6.343 11.3-12.147 17.875-17.375C-153.985 14.348-148.025 8.197-142 2a57.7 57.7 0 0 1 9.125 6.438c17.633 14.23 53.038 41 76.7 40.109 4.968-1.249 8.5-5.165 12.175-8.547l1.717-1.56c7.263-6.603 14.303-13.407 21.21-20.381C-14.494 11.439-7.42 5.649 0 0" style="fill:#be1522;fill-opacity:1" transform="translate(4396 4078)"/><path d="M0 0c3.348 1.122 6.4 2.673 9.492 4.363l2.6 1.418c.918.505 1.837 1.01 2.783 1.532l2.934 1.607c9.815 5.394 19.562 10.907 29.3 16.439 4.793 2.72 9.592 5.43 14.391 8.141l5.66 3.2 2.864 1.618L96 53c-.868 4.244-3.063 6.95-5.75 10.25l-1.475 1.842A1437 1437 0 0 1 84 71l-3.234 4.02c-40.715 50.493-40.715 50.493-51.938 52.566-5.615-.86-10.086-3.33-15.078-5.961l-3.222-1.656A1358 1358 0 0 1 1 115l-4.988-2.602a1754 1754 0 0 1-9.172-4.835c-6.401-3.397-12.831-6.736-19.258-10.082-4.681-2.44-9.357-4.887-14.02-7.36l-2.591-1.373q-2.386-1.266-4.77-2.539A150 150 0 0 0-67 80l-2.125 1.941L-72 84.562l-2.812 2.567a439 439 0 0 1-7.047 6.23c-4.22 3.684-8.315 7.487-12.391 11.329l-2.236 2.083c-3.45 3.234-6.81 6.485-9.967 10.006l-1.577 1.722a263 263 0 0 0-4.064 4.634c-3.23 2.076-3.655 2.09-7.215 1.367A108 108 0 0 1-124 123l-2.08-.676c-27.101-9.348-55.391-23.973-78.17-41.324l-1.793-1.349c-1.598-1.276-1.598-1.276-3.957-3.651 0-4.338.07-4.572 2.813-7.5l1.933-2.102L-203 64q1.996-2.178 3.987-4.357 1.982-2.166 3.974-4.323a420 420 0 0 0 5.013-5.541c5.77-6.485 11.766-12.702 17.901-18.842l2.777-2.814c5.372-5.383 10.884-10.356 16.875-15.044C-148.545 9.777-145.259 5.95-142 2c3.618 1.592 6.377 3.83 9.438 6.313C-112.273 24.31-86.565 39.528-62 48l3.063 1.125c11.564-.492 23.925-17.045 31.715-24.92a164 164 0 0 1 10.148-9.416c3.595-3.1 7.065-6.34 10.558-9.555L-4 3l2.016-1.922z" style="fill:#be1522;fill-opacity:1" transform="translate(9234 4078)"/><path d="M0 0c3.115.91 5.693 2.199 8.546 3.748l3.435 1.854 3.663 2.002 3.806 2.06c3.757 2.034 7.507 4.08 11.256 6.127l3.012 1.642a6094 6094 0 0 1 10.595 5.786q7.756 4.243 15.557 8.404l1.874 1q4.533 2.421 9.071 4.83a548 548 0 0 1 21.891 12.338c-2.652 5.304-6.038 9.596-9.877 14.107-3.27 3.847-6.406 7.777-9.498 11.768-33.956 43.56-33.956 43.56-46.738 45.629-5.606-.727-10.055-3.048-15.074-5.566l-3.308-1.626C-4.792 107.65-17.564 100.76-30.294 93.79l-1.968-1.077C-57.818 78.722-57.818 78.722-62.04 76.059c-2.119-1.526-2.119-1.526-4.16-.823-3.063 2.275-5.83 4.81-8.594 7.43l-2.03 1.882c-4.331 4.073-8.477 8.28-12.523 12.632a955 955 0 0 1-7.353 7.776 244 244 0 0 0-3.633 3.948c-9.636 10.694-9.636 10.694-15.147 11.151-3.2-.749-5.863-1.829-8.814-3.264a845 845 0 0 0-4.922-1.805 328 328 0 0 1-4.828-2.07l-2.681-1.165c-54.516-24.255-54.516-24.255-68.569-42.96l2.457-2.238c12.84-11.706 12.84-11.706 24.676-24.403 5.124-5.903 10.761-11.311 16.324-16.796 5.222-5.155 10.349-10.334 15.122-15.915 1.701-1.973 3.497-3.825 5.359-5.648l1.777-1.75 1.285-1.25c3.2 1.4 5.845 3.315 8.616 5.426 34.311 26.245 34.311 26.245 74.384 39.574 7.782-2.942 14.197-10.584 20.155-16.248 3.33-3.162 6.683-6.299 10.033-9.44l2.056-1.93C-17.863 13.308-12.668 8.45-7.294 3.79c.81-.76 1.622-1.518 2.457-2.3C-2.294-.21-2.294-.21 0 0" style="fill:#be1522;fill-opacity:1" transform="translate(10332.294 4042.209)"/><path d="M0 0a77 77 0 0 1 6.674 3.13l2.76 1.443L12.4 6.142l3.109 1.633A1559 1559 0 0 1 38.386 20.11 2109 2109 0 0 0 59.57 31.54c10.56 5.636 21.07 11.34 31.456 17.29 0 5.085-2.132 7.354-5.125 11.188l-1.625 2.12C78.586 69.507 72.684 76.7 66.7 83.83a906 906 0 0 0-4.63 5.585c-5.659 6.804-11.643 13.238-17.856 19.54l-2.138 2.19c-9.483 9.472-9.483 9.472-16.98 9.919-7.547-1.282-14.46-5.504-21.195-8.985l-4.598-2.337c-10.322-5.269-20.455-10.826-30.492-16.62-6.992-4.02-14.106-7.81-21.222-11.605l-1.916-1.022q-5.32-2.838-10.647-5.666c-4.457 3.239-8.685 6.44-12.5 10.438a110 110 0 0 1-8.031 7.601c-5.774 5.005-11.092 10.477-16.469 15.899l-3.215 3.228q-3.895 3.913-7.785 7.834c-7.77-2.106-15.367-4.23-22.687-7.625l-2.282-1.04c-51.433-23.804-51.433-23.804-66.03-39.335 0-4 0-4 1.509-5.983l2.143-2.107 2.419-2.409c.875-.85 1.75-1.702 2.65-2.579l2.708-2.683q3.575-3.536 7.168-7.053c3.35-3.284 6.686-6.583 10.022-9.882q2.663-2.63 5.336-5.249c4.353-4.284 8.543-8.624 12.497-13.28 2.766-3.171 5.791-6.084 8.797-9.025 5.237-5.057 5.237-5.057 9.75-10.75 3.288.585 4.836 1.54 7.188 3.875C-115.632 19.265-94.024 30.157-74.6 39.58l2.5 1.231c5.48 2.578 11.02 4.686 17.125 5.02 2.904-.88 2.904-.88 5.125-2.938l2.781-2.277a371 371 0 0 0 3.094-2.786l1.774-1.602c4.818-4.387 9.524-8.888 14.226-13.398a3366 3366 0 0 1 8.938-8.5l2.04-1.957A208 208 0 0 1-6.222 2.798L-4.05 1C-1.975-.17-1.975-.17 0 0" style="fill:#be1522;fill-opacity:1" transform="translate(5493.975 4042.17)"/><path d="M0 0c5.638.566 9.73 3.114 14.605 5.887l3.167 1.76a1308 1308 0 0 1 77.083 46.74c-1.808 3.197-3.576 5.795-6.25 8.312a108 108 0 0 0-7.046 7.45c-3.477 4.002-7.064 7.883-10.704 11.738l-3.984 4.23-2.03 2.154a1175 1175 0 0 0-5.626 6.041 915 915 0 0 1-21.172 22.075l-2.315 2.354c-14.962 14.986-14.962 14.986-22.873 16.646-2.547-.804-2.547-.804-5.105-2.305l-2.938-1.684-3.144-1.886-3.312-1.924q-4.378-2.555-8.732-5.152c-2.884-1.712-5.782-3.4-8.679-5.092a1961 1961 0 0 1-20.09-11.957l-3.036-1.827c-27.86-16.824-27.86-16.824-34.964-25.173-2.657-11.226 2.373-24.089 8.125-33.625C-54.273 23.34-34.334 6.257-8.207 1.074-5.48.604-2.747.338 0 0" style="fill:#be1522;fill-opacity:1" transform="translate(7947.145 4035.613)"/><path d="M0 0c3.69 1.433 6.906 3.058 10.262 5.168l3.101 1.935 3.325 2.085C53.25 33.905 53.25 33.905 94 49c-.44 5.155-2.244 8.272-5.437 12.188-.445.56-.89 1.121-1.347 1.7-3.787 4.72-7.807 9.204-11.923 13.64a235 235 0 0 0-5.668 6.347c-4.074 4.686-8.307 9.223-12.527 13.777-2.818 3.041-5.616 6.1-8.41 9.16q-6.786 7.4-13.626 14.75l-1.936 2.095-1.84 1.972-1.63 1.752C27.885 128.113 26.01 129.556 24 131l-3.136-1.614A14694 14694 0 0 0-15 111l-2.191-1.12C-47.161 94.154-47.161 94.154-79 83c3.838-8.68 12.501-15.62 19.218-22.181 2.723-2.679 5.311-5.405 7.784-8.319 4.802-5.512 10.002-10.628 15.182-15.781l3.198-3.194q4.172-4.166 8.35-8.325 4.275-4.263 8.547-8.528Q-8.364 8.332 0 0" style="fill:#be1522;fill-opacity:1" transform="translate(9587 4041)"/><path d="M0 0c6.731 3.186 12.913 7 19.188 11C54.56 34.659 54.56 34.659 94 49c-1.807 14.918-22.878 32.053-32.766 42.55a418 418 0 0 0-7.672 8.388c-8.467 9.466-17.102 18.856-26.242 27.68-1.435 1.367-1.435 1.367-2.32 3.382a117 117 0 0 1-10.07-4.469l-2.935-1.464-3.12-1.567-3.259-1.631a856 856 0 0 1-18.928-9.806C-45.373 94.134-45.373 94.134-80 83c1.541-3.713 3.808-5.981 6.688-8.75 2.913-2.81 5.682-5.652 8.3-8.734 6.04-6.98 12.774-13.331 19.333-19.816 8.824-8.716 8.824-8.716 17.13-17.92 2.84-3.265 5.917-6.295 8.987-9.343l1.985-1.98c3.901-3.865 7.861-7.613 12.057-11.16C-3.572 3.635-1.773 1.847 0 0" style="fill:#be1522;fill-opacity:1" transform="translate(5701 4041)"/><path d="M0 0c3.325 1.299 6.29 2.673 9.309 4.582l2.478 1.555 2.65 1.676C52.216 32.766 52.216 32.766 94 49c-.397 5.456-2.603 8.667-6 12.75l-1.497 1.85c-3.689 4.52-7.527 8.898-11.476 13.193a235 235 0 0 0-5.215 5.894c-4.06 4.667-8.31 9.154-12.541 13.665A611 611 0 0 0 47.063 107.5c-3.02 3.382-6.137 6.607-9.376 9.777-2.442 2.493-4.677 5.15-6.914 7.828-2.08 2.223-4.384 4.013-6.773 5.895l-3.351-1.721a17488 17488 0 0 0-32.517-16.655q-4.59-2.345-9.174-4.701c-12.2-6.266-24.493-12.18-37.083-17.61l-3.542-1.534C-67.398 86.35-72.903 84.275-79 83c3.693-7.998 10.898-14.003 17.116-20.08 2.75-2.705 5.369-5.453 7.863-8.397 4.945-5.676 10.309-10.935 15.642-16.242l3.333-3.328q4.35-4.344 8.705-8.68 4.456-4.443 8.91-8.89Q-8.72 8.688 0 0" style="fill:#be1522;fill-opacity:1" transform="translate(10539 4041)"/><path d="M0 0c4.28 2.095 8.502 4.187 12.531 6.742l2.418 1.52L17.5 9.875C53.662 34.164 53.662 34.164 94 49c-2.069 15.298-22.354 31.505-32.563 42.455C59.11 93.957 56.806 96.479 54.5 99l-2.71 2.957a4103 4103 0 0 0-4.291 4.685C41.148 113.588 34.718 120.404 28 127l-4 4C-.69 118.75-.69 118.75-11.187 113.125-44.405 95.078-44.405 95.078-80 83c1.61-4.098 4.576-6.765 7.688-9.75 3.201-3.091 6.296-6.193 9.165-9.599 5.59-6.419 11.709-12.335 17.737-18.339q1.97-1.965 3.938-3.934 5.148-5.142 10.303-10.277 5.27-5.258 10.538-10.519Q-10.319 10.287 0 0" style="fill:#be1522;fill-opacity:1" transform="translate(4749 4041)"/><path d="M0 0c2.367 1.61 2.367 1.61 4.875 3.75l2.91 2.469L11 9l3.559 3.031A576 576 0 0 1 35.08 30.423a300 300 0 0 0 8.79 7.96C48.212 42.16 52.43 46.06 56.625 50l2.195 2.04C68.742 61.35 68.742 61.35 71 65c.106 4.876-2.72 7.372-5.867 10.773L63 78l-2.195 2.352c-6.176 6.42-12.896 11.808-19.948 17.205a276 276 0 0 0-5.56 4.455c-6.237 5.105-12.535 10-19.234 14.488l-1.79 1.203C2.23 125.603 2.23 125.603-4 126c-13.089-3.556-25.717-16.605-36-25l-2.559-2.066C-50.162 92.765-57.663 86.484-65 80l-1.612-1.414a246 246 0 0 1-4.326-3.961l-2.464-2.273C-75 70-75 70-74.79 67.155c2.85-11.39 14.993-20.754 23.052-28.7 2.24-2.207 4.468-4.426 6.694-6.646q2.16-2.148 4.324-4.293l1.986-1.974c6.61-6.51 13.576-12.548 20.858-18.292l1.762-1.418C-5.896-2.237-5.896-2.237 0 0" style="fill:#be1522;fill-opacity:1" transform="translate(8322 4015)"/><path d="M0 0c11.21 11.628 14.022 27.642 13.969 43.16-.962 15.82-6.909 28.374-18.25 39.25-11.398 9.73-25.102 11.712-39.603 10.945-9.577-.87-17.664-4.299-25.147-10.195l-3.063-2.125C-81.206 73.09-86.228 60.891-88.03 49.16c-1.132-17.958 1.234-34.193 13.25-48.375 8.004-8.353 19.637-14.632 31.34-15.594C-26.163-15.033-13.161-11.92 0 0" style="fill:#be1522;fill-opacity:1" transform="translate(6504.031 4450.84)"/><path d="M0 0c12.996 13.471 15.454 29.324 15.156 47.223-.26 6.874-1.43 12.581-4.312 18.882l-1.32 2.938C3.705 80.741-5.619 88.651-17.97 92.918c-14.17 4.386-28.915 3.073-42.312-3-12.426-6.636-19.643-17.18-24.149-30.305-4.464-15.408-2.657-32.968 4.399-47.195 7.01-12.26 17.288-19.782 30.789-23.785C-32.156-15.687-13.302-11.687 0 0" style="fill:#be1522;fill-opacity:1" transform="translate(6327.156 4448.895)"/><path d="M0 0c11.961 9.092 11.961 9.092 13.84 15.398.374 6.366-2.962 10.122-6.656 14.934-2.56 3.348-4.961 6.78-7.344 10.254l-1.205 1.748-2.795 4.064c-3-.594-4.938-1.466-7.356-3.328l-1.873-1.418-1.959-1.504c-9.33-7.372-9.33-7.372-20.312-11.312-10.7 1.72-21.31 8.748-29.5 15.562 17.321 17.596 37.71 18.493 61 19l13.715.308c4.795.107 9.589.21 14.383.3l5.398.111 2.454.041c5.721.123 11.364.6 17.05 1.24-3.889 9.003-9.5 16.54-15.58 24.17-1.427 1.786-1.427 1.786-2.574 3.614-1.62 2.354-3.065 4.002-5.866 4.772-2.5.276-4.965.38-7.48.444-34.967 2.19-72.084 22.525-100.672 41.891-1.828 1.11-1.828 1.11-3.828 1.11.936-4.966 3.909-8.137 7-12l1.344-1.758c4.478-5.598 10.033-9.847 15.656-14.243l1.674-1.312c5.652-4.424 11.314-8.76 17.326-12.688l-3.34-.918c-4.048-1.114-8.09-2.247-12.132-3.38-2.382-.661-4.768-1.3-7.157-1.936-19.37-5.263-19.37-5.263-24.371-12.766-2.428-17.276 6.181-35.018 15.875-48.812C-61.131 13.21-25.683-15.848 0 0" style="fill:#be1522;fill-opacity:1" transform="translate(5978.16 4544.602)"/><path d="M0 0c5.206 4.426 9.45 8.277 10.477 15.223-.654 5.184-2.99 8.127-6.102 12.215l-1.582 2.158A594 594 0 0 1-2 36l-3.398 4.535L-8 44c-5.537-1.8-9.66-5.332-14.209-8.836C-28.631 30.316-34.603 25.854-43 27c-2.763.972-5.295 2.244-7.875 3.625l-2.111 1.092C-58.224 34.47-63.224 37.497-68 41c8.983 11.516 20.766 16.802 35 19 3.644.337 7.28.462 10.938.563l3.247.109c7.586.241 15.173.407 22.76.574l2.892.064q7.2.161 14.4.298l5.392.11 2.46.042c5.357.115 10.591.584 15.911 1.24-1.693 6.516-5.434 11.251-9.36 16.584l-1.656 2.252-1.6 2.175c-1.522 2.102-1.522 2.102-2.993 5.028C27.804 91.904 26.809 93.27 24 95c-5.135 1.183-10.403 1.348-15.648 1.633C1.197 97.038-5.187 98.759-12 101l-2.08.674c-24.825 8.18-48.176 20.89-70.329 34.635C-88.789 139-88.789 139-91 139c6.842-18.848 28.079-31.493 44-42l-2.87-.747c-3.563-.93-7.122-1.875-10.68-2.824a916 916 0 0 0-4.596-1.207c-21.147-5.5-21.147-5.5-28.041-11.66-4.256-8.363-.899-19.28 1.769-27.851C-86.894 40.87-80.645 30.299-72 21l2.625-2.867C-53.808 1.814-21.331-15.39 0 0" style="fill:#be1522;fill-opacity:1" transform="translate(10820 4547)"/><path d="m0 0 1.703 1.336 2.14 1.648c4.635 3.818 7.71 7.232 9.805 12.918.086 5.382-2.907 8.582-6.007 12.809L5.9 31.17C2.26 36.295-1.505 41.327-5.298 46.337c-3.333-1.56-5.944-3.523-8.77-5.886-6.764-5.62-13.466-11.05-22.675-11.138-10.571 1.462-20.483 8.367-28.555 15.024 7.822 10.556 20.207 15.016 32.806 17.052 8.12 1.197 16.242 1.504 24.432 1.8q2.428.095 4.855.193 6.32.249 12.64.483c4.318.162 8.635.333 12.953.503q12.657.496 25.314.969c-1.086 4.887-3.668 8.271-6.531 12.344-1.846 2.647-3.44 5.362-5 8.187-6.62 11.414-6.62 11.414-11.593 13.255-4.822.801-9.621.466-14.483.231-31.835-.227-68.579 24.299-94.162 40.69-2.23 1.293-2.23 1.293-4.23 1.293 5.844-18.705 29.009-31.247 44-42l-1.966-.563c-21.78-6.258-21.78-6.258-30.66-9.125l-3.351-1.074c-4.71-1.929-8.183-3.977-11.024-8.238-2.325-17.816 5.18-34.875 15.2-49.129 2.168-2.737 4.423-5.314 6.8-7.871l2.625-2.867C-52.712 5.835-20.548-13.051 0 0" style="fill:#be1522;fill-opacity:1" transform="translate(8699.297 3936.664)"/><path d="M0 0c4.849 3.61 10.051 7.808 12.188 13.629.474 5.032-.502 7.446-3.43 11.512l-2.16 3.045-2.285 3.13-2.262 3.166a1021 1021 0 0 1-4.168 5.79 182 182 0 0 0-3.695 5.357c-4.468-1.454-7.312-3.783-10.813-6.875-6.493-5.565-13.159-10.741-22.187-10.125-8.336 1.776-15.092 6.376-22.032 11.074-2.968 1.926-2.968 1.926-5.968 2.926 7.303 10.57 19.664 15.676 32 18 5.247.722 10.402 1.18 15.7 1.389l2.191.089q3.54.141 7.077.276l4.943.197q6.471.258 12.941.508 6.617.26 13.233.523 12.957.514 25.915 1.018c-1.209 3.093-2.393 5.833-4.286 8.566L41.56 75.15a865 865 0 0 1-2.943 4.159c-2.327 3.269-4.576 6.488-6.523 10-4.639 7.675-4.639 7.675-8.777 8.852-3.798.516-7.561.475-11.387.429-7.538-.077-14.558 1.926-21.742 4.039l-2.222.646c-24.338 7.307-46.845 19.978-68.5 33.02-2.706 1.584-5.445 2.995-8.278 4.334.75-6.7 5.518-10.34 10-15l1.812-2.004c8.443-9.028 19.244-16.373 29.684-22.91 1.667-1.028 1.667-1.028 2.504-3.086l-1.746-.321c-7.034-1.344-13.916-3.088-20.817-4.992l-3.248-.857c-7.6-2.096-15.933-4.563-21.19-10.83-3.499-14.535 3.086-30.406 10.086-42.902 2.92-4.727 6.274-8.913 9.915-13.098l2.12-2.559C-55.108 4.993-22.467-13.322 0 0" style="fill:#be1522;fill-opacity:1" transform="translate(3861.813 3937.371)"/></svg>