<?xml version="1.0" encoding="UTF-8"?>
<svg id="Layer_1" xmlns="http://www.w3.org/2000/svg" version="1.1" viewBox="0 0 340.11 122.19">
  <!-- Generator: Adobe Illustrator 30.3.0, SVG Export Plug-In . SVG Version: 2.1.3 Build 182)  -->
  <defs>
    <style>
      .st0 {
        fill: #fff;
      }

      .st1 {
        fill: #fff100;
        fill-rule: evenodd;
      }

      .st2 {
        fill: #353434;
      }
    </style>
  </defs>
  <g>
    <path class="st1" d="M307.94,100.82c-.06.05-.1.11-.14.18-.08.18-.05.38-.02.57.14.85.28,1.71.43,2.56-3.35-2.2-6.7-4.39-10.05-6.59-.26-.17-.53-.35-.84-.37-1.49-.12.16,1.54.49,1.89,4.54,4.76,9.09,9.51,13.63,14.27.41.43.9.89,1.48.84.41-.94.82-1.89,1.23-2.83,2.6,2.26,5.21,4.52,7.81,6.77.39.34.99.69,1.38.34.2-.18.24-.47.26-.73.31-3.09.61-6.19.92-9.28-5.11-2.51-10.21-5.02-15.32-7.53-.4-.19-.96-.34-1.26-.09Z"/>
    <path class="st1" d="M299.37,110.98c-1.11-1.04-2.84-2.8-4.37-3.09.34,1.11,1.42,2.29,2.13,3.22.82,1.07,1.71,2.1,2.65,3.07,1.85,1.91,3.92,3.61,6.16,5.05-.55-1.66-1.74-3.02-2.89-4.33-1.18-1.34-2.37-2.69-3.68-3.92Z"/>
    <path class="st1" d="M309.47,84.87c2.37.79,4.8,1.4,7.26,1.81-.4-.43-.92-.74-1.46-1-.13-.06-.27-.13-.4-.19-1.9-.87-3.86-1.61-5.87-2.21-1.03-.31-2.06-.58-3.11-.81-.81-.18-2.34-.75-3.11-.5.52.72,2.32,1.21,3.17,1.57,1.15.49,2.32.93,3.5,1.33Z"/>
    <path class="st1" d="M301.49,87.99c1.64.28,3.32.33,4.98.14.72-.08,1.45-.21,2.07-.57-2.45-1.27-5.36-1.2-8.11-1.01-.34.02-1.55.24-1.25.83.2.4,1.9.54,2.31.61Z"/>
    <path class="st1" d="M308.65,95.91c-3.33-2.08-6.73-3.45-10.39-3.99,1.73,1.59,3.77,2.23,5.78,2.9,1.53.51,3.06,1.05,4.61,1.09Z"/>
    <path class="st1" d="M293.53,118.16c.72,1.44,1.42,2.9,2.48,4.03-.89-3.82-2.32-7.2-4.53-10.17.1,2.35,1.09,4.24,2.04,6.14Z"/>
    <path class="st1" d="M293.99,55.05c.37.03,1.34-1.73,1.53-2.03.45-.74.83-1.53,1.13-2.34.61-1.62.92-3.36.89-5.09-.02-.01-.03-.02-.05-.03-.2-.1-.46.09-.62.27-1.11,1.29-1.94,2.81-2.46,4.42-.18.56-1.19,4.73-.42,4.8Z"/>
    <path class="st1" d="M289.12,28.86c-.16-.11-.35-.13-.55-.14-.08,0-.16,0-.24,0l-4.82.24c-.66,4.04-1.32,8.07-1.98,12.11-.58-.63-1.17-1.27-1.75-1.9-.06-.07-.13-.14-.22-.16-.07-.01-.14,0-.2.03-.48.21-.54.86-.53,1.39.05,2.11.1,4.23.15,6.34l.07,3.13c0,.37-.08,2.25.87,1.76.25-.13.34-.43.41-.7.44-1.7.88-3.4,1.32-5.1.69.26,1.42.4,2.16.42,1.82-5.29,3.64-10.59,5.46-15.88.18-.53.31-1.23-.16-1.54Z"/>
    <path class="st1" d="M272.38,36.75c-.09-.6-.19-1.22-.5-1.74-.1-.16-.25-.33-.43-.34-.02,0-.04,0-.07,0-.18.03-.3.2-.37.36-.36.82-.13,1.77.08,2.65.58,2.43.94,4.91,1.32,7.38.37,2.4.66,4.92,1.47,7.21.24.68.59,2.1.9,1.94.27-.14.29-1.87.18-2.81-.55-4.93-1.8-9.75-2.58-14.65Z"/>
    <path class="st1" d="M258.24,27.06c-.03-.44-.16-.99-.5-1.19-.07-.04-.16-.07-.25-.08-.19-.02-.38.07-.55.15-1.14.52-2.28,1.03-3.41,1.55-.78-4.33-1.56-8.65-2.35-12.98-.09-.49-.31-1.11-.81-1.12-.28,0-.52.19-.72.38-2.7,2.48-5.4,4.95-8.1,7.43-.36.33-.71.72-.89,1.18-.21.53-.03.86.2,1.34.58,1.18,1.13,2.36,1.7,3.54,1.13,2.36,2.27,4.73,3.4,7.09,1.28,2.67,2.56,5.34,3.85,8.01.2.42.51.9.97.87.37-.02.62-.38.81-.69.67-1.09,1.33-2.17,2-3.26,1.7,5.16,3.42,10.32,5.15,15.47.13.39.39.86.79.78.16-.03.29-.15.38-.28.31-.44.29-1.02.25-1.56-.64-8.88-1.28-17.76-1.91-26.64Z"/>
    <path class="st1" d="M304.42,49.59c-2.38,1.67-4.26,3.87-5.27,6.65,2.39-1.47,4.16-4.02,5.27-6.65Z"/>
    <path class="st1" d="M339.78,64.83c-.37-.3-.9-.2-1.36-.09-3.84.91-7.67,1.82-11.51,2.73.05-.93.09-1.86.14-2.79.01-.28.02-.6-.17-.82-.29-.34-.84-.23-1.27-.09-7.64,2.58-15.27,5.16-22.91,7.73-1.63.55-1.37,1.74.33,1.57,4.61-.47,9.23-.94,13.84-1.41-.6.9-1.2,1.8-1.8,2.7-.11.16-.22.34-.21.54.02.47.64.61,1.11.62,6.79.1,13.59.21,20.38.31,1.17-3.06,2.34-6.12,3.51-9.18.23-.61.42-1.41-.09-1.83Z"/>
    <path class="st1" d="M310.76,49.91s.1.03.14.04c1.16.27,2.32.54,3.48.8-3.59,2.54-7.18,5.08-10.77,7.62-.35.25-2.16,1.58-.76,1.73.25.03.5-.07.73-.17,7.98-3.25,15.96-6.51,23.94-9.76-1.02-.97-2.04-1.94-3.06-2.91,3.44-1.81,6.89-3.63,10.33-5.44.43-.22.92-.58.83-1.05-.07-.35-.44-.55-.77-.7-3.3-1.48-6.6-2.96-9.91-4.43-4.85,4.31-9.63,8.69-14.34,13.15-.22.2-.45.48-.35.76.07.2.28.3.49.36Z"/>
  </g>
  <path class="st1" d="M111.76,35.83l-1.38.43-1.03.31-1.89.59-2.52.83-3.08,1.08-3.58,1.33-3.99,1.59-4.93,2.11c.88,1.08,1.39,1.81,1.81,2.89l-3.86,1.2-5.17,2.02-5.26,2.32-5.02,2.4-4.47,2.25-5.92,3.16c.07-3.42.27-6.85.61-10.26.35-3.59.83-7.16,1.42-10.73,7.86-.22,15.37,1.16,22.18,5.17l.66.41c.69.35.73-.04,1.24-.92l.5-.9.61-1.11.59-1.12c2.54-5,4.79-10.08,6.88-15.28.08-.27.09-.4.05-.68-.83-3.29-1.69-6.49-2.76-9.69C73.33-4.95,43.67-3.16,20.41,9.49c-3.61,1.96-7.11,4.15-10.49,6.49-3.43,2.38-6.72,4.92-9.93,7.6l.02,2.05c.19,15.76.73,31.08,2.3,46.78l1.13,6.94,7.24,4.87c.42.22.84.14,1.12-.25l2.49-3.84,2.51-3.81,2.54-3.79,2.58-3.76,2.63-3.72,2.69-3.67c3.02-3.95,5.95-7.75,9.31-11.4l.97-1c.69-.67,1.39-1.37,2.12-1.98.21,13.58.42,27.17.63,40.75v.5c.9,1.94,1.82,3.85,2.76,5.77l.45.93.45.92,1.26,2.53c.34.6,1.01.7,1.57.32l.03-.02,4.6-3.99,2.27-1.97c6.27-5.42,22.63-20.07,29.52-23.23l-15.46,52.16c.38.24.5.3.87.51,1.63-2.28,3.26-4.56,4.89-6.84l4.52-6.5,4.48-6.53,4.44-6.55,4.41-6.57,4.39-6.59,4.36-6.6,1.33-2.03,11.62-17.9,1.42-2.22,1.43-2.26c.14-.28.2-.39.1-.76-1.39-4.81-2.92-10.22-4.23-15.01ZM92.55,18.02l.16,1.2c.23,1.6.49,3.19.77,4.78l.18,1-.18.39c-2.2,4.81-4.2,9.64-5.99,14.61l-.54,1.57-1.48-5.9,7.08-17.66ZM65.21,32.2c.51-1.64,1.11-3.24,1.82-4.8,7.29,1.03,11.77,3.76,17.24,8.56l.12.62.19.96c.28,1.46.56,2.91.85,4.36l.1.52c-6.49-3.93-14.02-5.5-21.55-5.51.36-1.58.75-3.15,1.23-4.7ZM38.34,44.66c-8.75,7.73-16.7,20.14-23.14,30.42l-2.37,3.9-2,3.39c-1.99-1.2-3.98-2.42-5.99-3.6l.41-.71,2.04-3.37,3.25-5.04,4.33-6.22c8.11-10.62,14.3-17.7,24.65-26.28l.07,6.52-1.23,1ZM94.71,44.92c.94.17,1.76.5,2.48,1.01-1.41-.03-2.78.23-4.19.55-.42-.57-.88-1.11-1.38-1.62,1.03-.1,2.09-.12,3.09.06ZM70.05,75.85l-3.03,2.28-2.97,2.35-2.93,2.41-2.89,2.45-2.85,2.49-2.82,2.53c-2.1,1.91-4.15,3.82-6.19,5.78l-.25-.44-.66-1.13c-1.24-2.12-2.49-4.24-3.78-6.33,3.22-2.94,6.49-5.82,9.86-8.58,3.59-2.94,7.3-5.75,11.15-8.34,3.8-2.55,7.75-4.89,11.88-6.86,3.65-1.75,7.46-3.22,11.38-4.24l-2.33,7.74-.38.11c-4.36,1.37-9.46,5.11-13.19,7.79ZM112.59,52.82l-1.48,2.16-1.48,2.16-8.96,13.28-2.77,4.15-4.38,6.59-4.35,6.61-4.33,6.63-4.29,6.65-4.26,6.68-1.32,2.09,35.94-71.36,3.01,12.44-1.33,1.93Z"/>
  <g>
    <path class="st0" d="M132.5,65.89v-10.94h-10.6v35.99h10.6v-18.26c0-3.04,4.77-3.29,4.77,0v18.26h10.6v-18.28c0-9.06-10.43-12.49-15.37-6.76Z"/>
    <path class="st0" d="M167.07,82.36c0,2.68-4.47,3.1-4.47,0v-17.93h-10.6v19.01c0,8.52,9.61,10.52,16.19,5.2l.68,2.29h8.8v-26.5h-10.6v17.93Z"/>
    <path class="st0" d="M199.44,63.09c-2.74.07-5.23,1.39-6.88,3.48l-.49-2.14h-9.24v26.5h10.6v-18.19c0-2.76,4.4-3.48,4.72,0v18.19h10.6v-18.28c0-5.67-3.51-9.7-9.31-9.56Z"/>
    <path class="st0" d="M230.19,88.17l1.36,2.77h7.49v-35.99h-10.6v10.6c-3.9-3.52-9.89-2.49-13.04,1.4-2.78,3.23-3.11,6.71-3.11,12.27.51,5.44.92,7.48,5.08,11.16,5.39,2.46,8.74,2.07,12.81-2.21ZM228.44,83.01c-2.57,2.66-5.68,1.58-5.54-3.65v-3.5c0-1.63.02-3.12.66-4.01,1.44-1.73,3.78-1.42,4.89.02v11.14Z"/>
    <path class="st0" d="M267.91,88.65l-3.06-5.74c-3.77,1.8-11.57,3.96-11.57-2.63h14.69c2.55-22.07-24.95-22.51-24.95-3.84,0,15.73,12.81,18.86,24.9,12.21ZM256.1,69.74c3.05,0,2.7,2.51,2.87,5.2h-5.69c.18-2.53-.07-5.2,2.82-5.2Z"/>
    <path class="st0" d="M280.5,69.1l-1.6-4.67h-6.91v26.5h10.6v-13.71c2.17-3.4,3.25-4.16,7.29-3.74l1.75-9.43c-5.7-.79-8.1-.02-11.14,5.06Z"/>
    <path class="st0" d="M221.28,104.62c-.65-.43-1.5-.76-2.6-1.06-.63-.13-1.11-.3-1.45-.46-.35-.15-.52-.39-.52-.67,0-.59.65-.67,1.37-.67.46,0,1,.15,1.56.35.56.2,1.15.5,1.6.8l1.13-2.41c-1-.67-2.28-1.3-4.44-1.3-1.04-.02-2.28.22-3.21.8-.93.56-1.65,1.5-1.56,2.75,0,1.08.3,1.82,1,2.36.67.59,1.69.98,3.14,1.34,1.17.3,1.73.65,1.73,1.02,0,.59-.59.72-1.3.72-.65,0-1.34-.11-1.99-.37-.69-.24-1.24-.56-1.65-.91l-1.17,2.6c.3.24.91.59,1.76.85.8.28,1.89.48,3.06.48.76,0,1.47-.09,2.19-.26,1.43-.37,2.73-1.45,2.73-3.38,0-.39-.04-.85-.24-1.3-.2-.43-.52-.89-1.13-1.28Z"/>
    <path class="st0" d="M229.61,107.93c-.61,0-.87-.24-.87-.95v-4.75h2.45v-2.8h-2.45v-2.71h-3.77v2.71h-1.52v2.8h1.52v5.29c0,2.1,1.11,3.32,3.29,3.32,1.63,0,2.67-.35,3.56-.98l-.87-2.47c-.48.37-.93.54-1.34.54Z"/>
    <path class="st0" d="M264.49,99.2c-.91,0-1.78.17-2.6.54-1.69.74-2.95,2.71-2.95,5.22,0,1.71.54,3.17,1.5,4.21.95,1.04,2.3,1.67,4.05,1.67s3.17-.63,4.12-1.67c.95-1.04,1.45-2.49,1.45-4.21,0-.8-.17-1.65-.52-2.58-.67-1.8-2.41-3.19-5.05-3.19ZM264.49,107.93c-1.19,0-1.8-1.15-1.8-2.97s.63-2.84,1.8-2.84,1.82,1.11,1.82,2.84c0,1.82-.54,2.97-1.82,2.97Z"/>
    <path class="st0" d="M255.12,94.99c-1.28,0-1.97.8-1.97,1.8,0,1.06.69,1.73,1.97,1.73s1.97-.67,1.97-1.73c0-1-.72-1.8-1.97-1.8Z"/>
    <path class="st0" d="M237.67,99.2c-.65,0-1.6.11-2.88.56-.61.2-1.04.43-1.39.63l1.11,2.41c.8-.48,1.69-.78,2.58-.78.93,0,1.39.41,1.39,1.24v.39c-1.19.07-1.95.17-2.38.24-.74.06-1.67.32-2.38.93-.76.59-1.3,1.45-1.28,2.62,0,1.08.37,1.86.98,2.45.63.61,1.45.91,2.43.91,1.3,0,2.28-.48,2.88-1.04l.3.87h3.19v-7.07c0-2.97-1.78-4.36-4.53-4.36ZM238.47,107.67c-.35.26-.82.48-1.34.48-.74,0-1.17-.43-1.17-1,0-.72.3-1.19,1.19-1.37.07-.02.22-.04.41-.06.2-.02.52-.04.91-.11v2.06Z"/>
    <path class="st0" d="M278.62,99.2c-1.37,0-2.45.56-3.14,1.19l-.15-.95h-3.34v11.19h3.79v-7.74c.41-.37.95-.74,1.6-.74.91,0,1.39.65,1.39,1.84v6.63h3.82v-7.07c0-2.97-1.6-4.36-3.97-4.36Z"/>
    <path class="st0" d="M249.68,107.93c-.61,0-.87-.24-.87-.95v-4.75h2.45v-2.8h-2.45v-2.71h-3.77v2.71h-1.52v2.8h1.52v5.29c0,2.1,1.11,3.32,3.3,3.32,1.63,0,2.67-.35,3.56-.98l-.87-2.47c-.48.37-.93.54-1.34.54Z"/>
    <rect class="st0" x="253.22" y="99.44" width="3.77" height="11.19"/>
  </g>
  <g>
    <polygon class="st2" points="109.24 9.76 109.23 7 108.53 9.76 107.83 9.76 107.14 7.02 107.12 9.76 106.45 9.76 106.45 6.19 107.53 6.19 108.18 8.62 108.82 6.19 109.91 6.19 109.91 9.76 109.24 9.76"/>
    <polygon class="st2" points="104.94 9.76 104.22 9.76 104.22 6.79 103.16 6.79 103.16 6.19 106 6.19 106 6.79 104.94 6.79 104.94 9.76"/>
  </g>
</svg>